<?xml version="1.0" standalone="no"?>
<!DOCTYPE svg PUBLIC "-//W3C//DTD SVG 20010904//EN"
 "http://www.w3.org/TR/2001/REC-SVG-20010904/DTD/svg10.dtd">
<svg version="1.0" xmlns="http://www.w3.org/2000/svg"
 width="117.000000pt" height="117.000000pt" viewBox="0 0 117.000000 117.000000"
 preserveAspectRatio="xMidYMid meet">
<metadata>
Created by potrace 1.14, written by Peter Selinger 2001-2017
</metadata>
<g transform="translate(0.000000,117.000000) scale(0.100000,-0.100000)"
fill="#000000" stroke="none">
<path d="M516 1118 c-14 -20 -14 -25 -1 -45 8 -12 15 -37 15 -55 l0 -33 -23
29 -23 29 -20 -26 c-10 -13 -23 -32 -29 -41 -5 -10 -17 -18 -25 -19 -9 -2 -29
-12 -45 -23 -17 -12 -47 -27 -68 -34 -30 -9 -38 -16 -35 -33 3 -24 17 -25 95
-12 44 7 74 -4 128 -49 23 -19 27 -27 18 -36 -8 -9 -25 -9 -70 3 -62 15 -159
13 -181 -5 -16 -14 -11 -18 30 -25 18 -3 42 -10 53 -16 11 -6 33 -10 49 -9 16
2 36 -4 45 -12 9 -8 31 -18 50 -23 19 -5 37 -15 39 -22 4 -11 -4 -12 -34 -6
-70 14 -208 15 -233 2 -33 -17 -31 -30 6 -42 18 -6 45 -22 60 -37 16 -14 47
-38 71 -53 63 -41 51 -58 -25 -36 -24 7 -35 6 -44 -5 -14 -17 -3 -32 27 -38
58 -12 120 -30 128 -37 11 -10 -20 -38 -41 -39 -7 0 -27 13 -46 29 -38 34
-123 55 -154 37 -20 -12 -20 -45 0 -47 45 -3 76 -14 114 -40 24 -17 57 -35 73
-41 45 -15 36 -30 -17 -27 -27 1 -60 -4 -76 -11 -21 -10 -30 -11 -39 -2 -17
17 -48 15 -48 -3 0 -19 69 -65 98 -65 13 0 33 5 45 11 27 15 116 18 124 5 4
-6 6 -57 4 -113 l-3 -103 45 0 44 0 -4 68 c-2 37 -5 91 -7 120 -4 64 6 71 58
44 21 -11 45 -19 54 -17 9 2 20 4 25 4 19 2 4 23 -24 33 -38 13 -30 21 21 23
49 2 61 11 27 24 -14 5 -28 15 -33 22 -7 12 30 11 179 -7 48 -6 57 -4 57 9 0
9 -13 18 -31 22 l-31 7 26 24 c35 33 33 42 -10 50 -33 6 -35 8 -29 35 6 25 4
29 -15 29 -12 0 -29 -4 -38 -9 -30 -15 -82 -21 -82 -9 0 26 43 48 97 48 39 0
53 4 53 14 0 28 -68 35 -141 13 -46 -14 -94 -15 -106 -3 -12 12 20 26 62 26
69 0 158 29 182 60 18 23 -2 50 -39 50 -27 0 -30 3 -26 25 4 19 1 25 -11 25
-10 0 -22 -5 -27 -10 -6 -6 -19 -12 -30 -14 -10 -2 -32 -7 -48 -11 -22 -6 -28
-5 -24 6 2 7 21 18 41 22 36 9 64 38 53 56 -13 20 -58 21 -99 2 -24 -12 -46
-16 -51 -11 -17 17 15 39 81 54 77 17 106 38 83 60 -17 16 -34 19 -98 17 -35
-1 -49 -7 -70 -31 -45 -51 -57 -35 -19 24 16 27 28 35 44 32 29 -4 40 10 44
55 2 25 -3 42 -17 57 -18 19 -25 20 -57 11 -20 -5 -39 -14 -42 -19 -4 -6 -10
-10 -15 -10 -11 0 0 41 16 61 11 13 11 19 -2 37 -19 28 -39 28 -58 0z"/>
</g>
</svg>
