<svg width="95" height="41" fill="none" xmlns="http://www.w3.org/2000/svg"><path d="M18.354 35.688c-2.295.005-4.625-.554-6.758-1.578a17.005 17.005 0 01-5.61-4.378 17.32 17.32 0 01-3.375-6.366 17.529 17.529 0 01-.625-3.59c-.08-1.215-.03-2.435.135-3.642a18.21 18.21 0 01.886-3.537 17.715 17.715 0 011.602-3.28 17.502 17.502 0 015.02-5.202 17.113 17.113 0 016.615-2.68c2.335-.403 4.733-.304 6.936.328-2.291.009-4.51.357-6.566 1.082a18.028 18.028 0 00-5.567 3.129 17.131 17.131 0 00-3.99 4.767A16.108 16.108 0 005.8 13.554a15.852 15.852 0 00-.713 2.99 16.018 16.018 0 00-.15 3.067 16.18 16.18 0 00.42 3.048 16.98 16.98 0 002.506 5.672 17.783 17.783 0 004.477 4.527c1.773 1.258 3.812 2.198 6.013 2.83zm6.1-30.098c2.294-.005 4.624.555 6.758 1.578a17.005 17.005 0 015.61 4.379 17.32 17.32 0 013.374 6.365c.338 1.169.537 2.375.625 3.587.08 1.215.03 2.436-.135 3.642a18.174 18.174 0 01-.886 3.538 17.713 17.713 0 01-1.602 3.28 17.503 17.503 0 01-5.02 5.202 17.114 17.114 0 01-6.614 2.68c-2.336.402-4.733.303-6.937-.329 2.292-.008 4.51-.356 6.567-1.081a18.028 18.028 0 005.566-3.13 17.13 17.13 0 003.99-4.766 16.11 16.11 0 001.257-2.813c.334-.972.572-1.972.713-2.99.15-1.015.196-2.044.15-3.068a16.21 16.21 0 00-.42-3.047 16.979 16.979 0 00-2.506-5.672 17.783 17.783 0 00-4.478-4.527c-1.775-1.256-3.811-2.195-6.012-2.827z" fill="#fff"/><path d="M5.947 17.587c-.006-2.268.56-4.57 1.597-6.678 1.038-2.108 2.564-4.013 4.43-5.544a17.669 17.669 0 016.441-3.335 18.095 18.095 0 013.63-.618 18.868 18.868 0 013.685.134c1.218.174 2.421.466 3.58.875 1.156.418 2.274.943 3.319 1.584a17.53 17.53 0 015.264 4.961 16.692 16.692 0 012.711 6.536c.408 2.309.308 4.678-.331 6.855-.01-2.264-.361-4.457-1.095-6.49a17.709 17.709 0 00-3.166-5.5 17.245 17.245 0 00-4.824-3.944c-.91-.499-1.86-.922-2.846-1.241a16.36 16.36 0 00-3.025-.705c-1.027-.148-2.07-.194-3.105-.148a16.776 16.776 0 00-3.084.415 17.39 17.39 0 00-5.74 2.476 17.798 17.798 0 00-4.58 4.426c-1.273 1.754-2.221 3.766-2.86 5.941z" fill="#fff"/><path d="M22.128 36.972l-.311-6.133s.182-.75.953-.188c.775.562 1.432.727 1.916.725.485 0 .67.017.67-.488 0-.504-.734-.405-.966-.498-.232-.093-.692-.496-.132-.522.56-.03 1.159-.026 1.623 0 .463.026.818-.197.22-.493-.599-.296-1.717-.806-.804-.888.912-.08 2.664.125 4.01.473 1.348.348 2.105-.43 1.688-.606-.417-.177-1.787-.368-1.535-.635.253-.267 1.26-.58 1.162-1.151-.096-.572-.234-.444-.833-.496-.599-.052-1.15-.102-.912-.444.237-.345.545-.568.422-.896-.123-.327-.945-.362-1.447 0-.501.363-1.126.186-1.564.424-.437.237-1.009.06-.42-.54.59-.6.523-.835 1.436-.855.912-.02 2.239.258 2.16-.485-.08-.742-2.33-.527-2.797-.414-.466.113-1.227.44-2.107.502-.88.06-1.555-.056-1.32-.427.235-.37.534-.452 1.397-.452.862 0 1.596-.11 2.561-.357.965-.246 2.21-.75 2.362-1.363.153-.611-.255-.942-.813-.965-.557-.024-1.352.017-1.103-.5.253-.515.32-.785 0-.857-.32-.073-.818.446-1.28.562-.46.12-1.777.58-2.024.418-.246-.163-.252-.53.238-.603.49-.073 1.631-.337 1.816-.659.185-.322.484-.957-.012-1.113-.495-.157-1.226-.38-1.872 0-.645.38-1.446.803-1.725.545-.279-.258.041-.708.51-1.012.47-.305 2.054-.47 2.486-.595.431-.124 1.335-.507 1.291-.69-.047-.182.367-.867-.537-.98-.907-.11-.874-.24-1.57-.122-.695.12-1.353-.066-1.843.31-.49.378-.862 1.256-1.194 1.306-.334.049-.378-.534 0-.946.379-.409.663-.826.713-1.075.05-.25.502-.288.83-.238.33.049.764.063.916-.258.153-.32-.103-.94.059-1.366.161-.426.214-.699.064-.879-.15-.18-.267.258-.504-.156-.238-.415-.194-.557-.529-.58-.334-.024-.469.272-.91.237-.44-.034-1.446.905-1.446.905l.041-1.389s.67-.293.702-.612c.032-.319-.367-1.02-.625-1.154-.259-.133-1.007-.058-1.318.664-.31.722.35 1.273.452 1.325.103.05.117 1.795.117 1.795s-.584-.409-.651-.696c-.068-.287-.076-.672-.534-.545-.458.125-.587.644-.78.792-.194.148-.294 1.079-.88 1.174-.59.096-.878.267-1.233.493-.355.226-.863.81-1.32.81-.459 0-1.295.194-1.371.718-.076.528.106 1.21 1.068.882.963-.328 2.019-.58 2.53-.374.507.206 1.164.58 1.719.98.552.4 1.355 1.079.769 1.317-.587.235-1.553-.215-2.36-.354-.806-.14-1.261-.316-2.15-.14-.89.177-1.972.053-2.028.566-.056.513.986.386 1.341.476.355.09.942.49 1.596.64.658.151 1.065-.214 1.441.05.376.264.622.65 1.095.728.475.078 1.335.226 1.443.426.109.2.185.594-.487.536-.672-.06-2.1-.574-2.702-.536-.602.038-2.497-.012-3.064.119-.566.13-1.285.319-1.077.826.206.508 1.221.557 1.503.583.278.026.278.258.648.64.367.384.528.578.84.738.31.162.586.48 1.1.724.513.247.933.61.983.862.05.252-.12.522-.73.295-.611-.226-1.398-.475-1.676-.426-.28.05-.737.351-.534.803.202.453 1.041.325 1.396.453.355.124.775.264 1.365.45.59.185.936.1 1.168.3.234.2.554.378.167.604-.387.226-1.1.678-1.658.275-.558-.4-.915-1.099-1.473-1.238-.558-.142-1.928-.417-2.562-.365-.633.05-.889.528-.813.878.077.351.534.604 1.195.551.66-.049 1.326.447 1.599.502.276.055.111.296.666.6.555.305 1.018.546 1.364.734.347.191 1.265.226 1.116.612-.15.386-.936.16-1.09.212-.152.049-.964-.183-1.37-.13-.404.054-1 .904-1.528.556-.528-.351-.78-.56-1.06-.52-.278.041-.578.65.356 1.248.933.594 1.344 1.003 2.37.815 1.03-.189.763-.665 1.62-.615.857.049 1.054.31 1.415.006.36-.305.836.046.818.574l-.176 5.451c.185-.003.37-.003.555-.011.569-.02 1.135-.079 1.699-.16z" fill="#fff"/><path d="M33.833 29.816a17.844 17.844 0 01-4.58 4.425 17.389 17.389 0 01-5.74 2.476c-.458.104-.919.189-1.385.255-.564.081-1.13.14-1.7.16-.184.008-.369.008-.554.011a16.321 16.321 0 01-2.55-.16 16.602 16.602 0 01-3.025-.704 16.503 16.503 0 01-2.846-1.24 17.247 17.247 0 01-4.824-3.945 17.65 17.65 0 01-3.166-5.5c-.73-2.033-1.083-4.226-1.095-6.49-.64 2.178-.74 4.547-.331 6.855a16.691 16.691 0 002.711 6.536 17.496 17.496 0 005.264 4.962 18.304 18.304 0 003.319 1.583c1.162.409 2.362.699 3.58.876 1.22.162 2.456.211 3.685.133a18.059 18.059 0 003.63-.618 17.644 17.644 0 006.44-3.334c1.867-1.532 3.393-3.434 4.431-5.545 1.04-2.108 1.602-4.41 1.597-6.678-.643 2.172-1.59 4.187-2.861 5.942z" fill="#fff"/><path d="M44.906 25.945l2.832-.243c.135 1.122.446 2.041.936 2.76.49.72 1.25 1.3 2.283 1.743 1.03.444 2.192.664 3.483.664 1.144 0 2.157-.168 3.034-.504.877-.337 1.529-.798 1.957-1.383a3.184 3.184 0 00.643-1.92c0-.705-.206-1.317-.62-1.841-.413-.525-1.094-.966-2.042-1.323-.61-.235-1.954-.597-4.037-1.093-2.084-.496-3.545-.96-4.378-1.4-1.083-.56-1.89-1.256-2.421-2.088a5.074 5.074 0 01-.798-2.79c0-1.13.325-2.19.974-3.172.648-.983 1.6-1.732 2.846-2.242 1.247-.51 2.635-.765 4.164-.765 1.681 0 3.163.266 4.448.803 1.285.536 2.271 1.322 2.964 2.363.69 1.041 1.062 2.218 1.115 3.532l-2.879.215c-.155-1.418-.677-2.488-1.57-3.21-.891-.725-2.209-1.085-3.952-1.085-1.816 0-3.14.328-3.97.986-.83.658-1.244 1.45-1.244 2.378 0 .806.293 1.467.883 1.989.578.52 2.086 1.053 4.525 1.598 2.438.545 4.114 1.023 5.02 1.43 1.32.603 2.295 1.362 2.926 2.284.628.923.945 1.987.945 3.19 0 1.192-.347 2.317-1.036 3.373-.693 1.055-1.684 1.876-2.978 2.462-1.295.585-2.753.878-4.373.878-2.053 0-3.773-.296-5.16-.887-1.389-.592-2.477-1.482-3.267-2.668-.795-1.192-1.212-2.534-1.253-4.034zm20.928 7.202V10.73h3.002v22.418h-3.002zm17.641-8.792v-2.63l9.61-.014v8.32c-1.476 1.162-2.996 2.035-4.566 2.62a13.686 13.686 0 01-4.827.88c-2.227 0-4.252-.474-6.074-1.416s-3.195-2.305-4.123-4.092c-.927-1.783-1.393-3.778-1.393-5.979 0-2.18.46-4.22 1.385-6.11.924-1.89 2.25-3.294 3.984-4.213 1.734-.92 3.73-1.377 5.99-1.377 1.64 0 3.121.263 4.448.788 1.326.525 2.365 1.256 3.119 2.195.754.94 1.326 2.16 1.716 3.671l-2.708.734c-.34-1.142-.763-2.038-1.268-2.69-.504-.653-1.226-1.175-2.165-1.57-.94-.391-1.98-.588-3.125-.588-1.373 0-2.559.206-3.56.62-1 .412-1.807.957-2.42 1.63a7.762 7.762 0 00-1.432 2.218c-.578 1.386-.866 2.891-.866 4.512 0 1.998.35 3.671 1.045 5.017.695 1.346 1.71 2.346 3.04 2.998a9.51 9.51 0 004.24.98c1.3 0 2.567-.246 3.805-.742 1.239-.496 2.178-1.02 2.817-1.583v-4.176h-6.672v-.003z" fill="#fff" stroke="#fff" stroke-width="1.65" stroke-miterlimit="10"/></svg>