<svg width="78" height="77" fill="none" xmlns="http://www.w3.org/2000/svg"><path d="M76.826 25.767h-7.575a32.234 32.234 0 00-3.095-5.634 31.474 31.474 0 00-1.678-2.222c.58-1.278.804-2.886.665-4.808a1.094 1.094 0 00-1.019-1.012c-1.98-.143-3.626.1-4.921.722a32.453 32.453 0 00-11.596-5.685c.233-1.117.301-2.263.202-3.4a1.094 1.094 0 00-1.013-1.012c-3.106-.224-5.39.498-6.79 2.145-.215.25-.405.52-.57.806a5.33 5.33 0 00-.568-.81c-1.406-1.648-3.683-2.37-6.79-2.146a1.093 1.093 0 00-1.013 1.013c-.1 1.133-.032 2.275.2 3.389-.938.241-1.86.525-2.766.851a32.587 32.587 0 00-9.639 5.486c-1.406-1.094-3.409-1.548-5.97-1.364a1.093 1.093 0 00-1.013 1.012c-.192 2.657.313 4.71 1.49 6.126a32.433 32.433 0 00-2.138 35.212 32.472 32.472 0 005 6.65h-3.608a3.785 3.785 0 00-3.78 3.78 1.592 1.592 0 01-1.592 1.592H1.845a1.094 1.094 0 100 2.187h5.404a3.783 3.783 0 003.779-3.78 1.594 1.594 0 011.592-1.591h5.953a32.314 32.314 0 0020.781 7.61h.083a32.132 32.132 0 0023.205-9.79 32.513 32.513 0 003.31-3.99 32.468 32.468 0 004.141-29.15h6.733a1.094 1.094 0 000-2.187zm-15.24-7.547c-1.074.92-2.585.961-3.466.89-.07-.88-.028-2.388.88-3.457.792-.937 2.13-1.406 3.99-1.406-.01 1.845-.481 3.181-1.405 3.973zM41.67 6.278c.793-.937 2.132-1.406 3.99-1.406-.008 1.853-.48 3.19-1.405 3.981-1.07.911-2.583.955-3.464.877-.07-.875-.029-2.383.88-3.452zm-4.476-.01c.919 1.074.96 2.587.887 3.466-.881.072-2.392.03-3.465-.889-.924-.79-1.396-2.128-1.407-3.98 1.852.009 3.193.479 3.985 1.404zm-10.72 7.97c-.01 1.853-.48 3.189-1.407 3.98-1.073.921-2.586.962-3.466.89-.071-.881-.03-2.392.888-3.466.794-.923 2.131-1.395 3.978-1.403l.006-.001zm-8.468 1.406c.919 1.072.961 2.584.89 3.464-.88.072-2.39.03-3.458-.88-.938-.79-1.407-2.131-1.407-3.989 1.845.01 3.183.48 3.975 1.405zm-.312 30.923a5.677 5.677 0 01-4.81 6.336 30.268 30.268 0 01-1.798-24.892 7.847 7.847 0 018.305 12.383 8.34 8.34 0 00-1.696 6.173h-.001zm23.403 22.085v-.255a4.644 4.644 0 014.637-4.64c1.82 0 3.136 1 3.92 1.84.299.321.568.669.805 1.038a30.072 30.072 0 01-9.362 2.017zm28.555-30.09a30.014 30.014 0 01-5.488 17.283 30.445 30.445 0 01-11.958 10.041 9.274 9.274 0 00-1.178-1.563c-1.467-1.57-3.345-2.435-5.29-2.435a6.522 6.522 0 00-6.513 6.515v.297a30.178 30.178 0 01-15.258-4.258 29.924 29.924 0 01-1.801-1.168h3.898a1.094 1.094 0 100-2.188h-6.672a30.362 30.362 0 01-5.503-6.472 7.528 7.528 0 005.666-8.29 6.447 6.447 0 011.314-4.782 9.724 9.724 0 00-8.922-15.623 29.798 29.798 0 013.125-5.322 7.188 7.188 0 003.27.722c.208 0 .403 0 .584-.019v3.778a1.094 1.094 0 002.188 0v-3.82c.351.04.704.061 1.058.06 1.25 0 2.947-.262 4.312-1.423 1.647-1.406 2.37-3.686 2.144-6.792a1.094 1.094 0 00-1.01-1.012c-1.052-.09-2.11-.04-3.15.147a29.956 29.956 0 014.776-2.21c.93-.334 1.875-.625 2.831-.858.304.51.69.965 1.14 1.35 1.366 1.161 3.058 1.424 4.315 1.424.301 0 .58-.014.82-.036v3.795a1.094 1.094 0 102.188 0v-3.795c.24.022.518.036.82.036 1.25 0 2.948-.263 4.314-1.424a5.5 5.5 0 001.134-1.339c3.82.962 7.415 2.66 10.585 5l-.05.057a5.36 5.36 0 00-.577.804 5.32 5.32 0 00-.569-.81c-1.406-1.647-3.684-2.37-6.79-2.146a1.094 1.094 0 00-1.013 1.012c-.225 3.107.497 5.393 2.144 6.793 1.366 1.16 3.058 1.423 4.312 1.423.293 0 .558-.014.793-.034v3.793a1.094 1.094 0 102.187 0V21.28c.248.023.536.039.85.039 1.25 0 2.948-.263 4.314-1.424.053-.045.103-.093.156-.142a30.078 30.078 0 013.71 6.014h-3.477a3.783 3.783 0 00-3.778 3.778 1.594 1.594 0 01-1.592 1.591h-5.406a1.094 1.094 0 000 2.188h5.406a3.784 3.784 0 003.78-3.78 1.594 1.594 0 011.59-1.59h4.39a30.176 30.176 0 011.88 10.609zM55.41 19.106c-.88.072-2.392.03-3.465-.89-.925-.791-1.396-2.127-1.407-3.98 1.854.009 3.191.48 3.983 1.406.92 1.076.963 2.589.89 3.464z" fill="#439539"/><path d="M48.785 37.802a4.392 4.392 0 00-4.387 4.386 1.25 1.25 0 002.5 0 1.887 1.887 0 013.773 0 1.25 1.25 0 002.5 0 4.39 4.39 0 00-4.386-4.386zm-4.396 9.512a1.25 1.25 0 00-1.25 1.25 4.236 4.236 0 11-8.472 0 1.25 1.25 0 00-2.5 0 6.736 6.736 0 0013.472 0 1.25 1.25 0 00-1.25-1.25zm-10.948-5.127a4.388 4.388 0 00-8.773 0 1.25 1.25 0 102.5 0 1.887 1.887 0 013.773 0 1.25 1.25 0 102.5 0zm39.004 27.646c-1.758-.728-2.13-1.102-2.852-2.858a1.64 1.64 0 00-3.031 0c-.728 1.756-1.102 2.13-2.858 2.858a1.64 1.64 0 000 3.031c1.719.71 2.145 1.139 2.856 2.856a1.64 1.64 0 003.033 0c.71-1.719 1.139-2.147 2.856-2.858a1.64 1.64 0 000-3.03h-.004zm-4.375 4.67c-.75-1.645-1.51-2.405-3.155-3.155 1.662-.753 2.4-1.49 3.154-3.154.754 1.664 1.491 2.401 3.155 3.154-1.642.75-2.403 1.507-3.151 3.155h-.003zM3.754 7.845c1.719.711 2.145 1.138 2.856 2.856a1.64 1.64 0 003.032 0c.712-1.718 1.139-2.145 2.857-2.856a1.642 1.642 0 000-3.033c-1.756-.726-2.13-1.093-2.856-2.856a1.642 1.642 0 00-3.033 0c-.726 1.756-1.093 2.13-2.856 2.856a1.642 1.642 0 000 3.033zm4.375-4.67c.752 1.664 1.49 2.4 3.152 3.155-1.646.743-2.405 1.509-3.155 3.154C7.378 7.84 6.624 7.074 4.97 6.33c1.664-.755 2.402-1.491 3.155-3.155h.003z" fill="#439539"/></svg>