<svg width="21" height="21" fill="none" xmlns="http://www.w3.org/2000/svg"><g clip-path="url(#clip0)" fill="#0071CE"><path d="M14.135.5h-7.5a6.25 6.25 0 00-6.25 6.25v7.5a6.25 6.25 0 006.25 6.25h7.5a6.25 6.25 0 006.25-6.25v-7.5A6.25 6.25 0 0014.135.5zm4.375 13.75a4.38 4.38 0 01-4.375 4.375h-7.5A4.38 4.38 0 012.26 14.25v-7.5a4.38 4.38 0 014.375-4.375h7.5A4.38 4.38 0 0118.51 6.75v7.5z"/><path d="M10.385 5.5a5 5 0 100 10 5 5 0 000-10zm0 8.125A3.13 3.13 0 017.26 10.5a3.129 3.129 0 013.125-3.125A3.129 3.129 0 0113.51 10.5a3.13 3.13 0 01-3.125 3.125zm5.375-7.834a.666.666 0 100-1.333.666.666 0 000 1.333z"/></g><defs><clipPath id="clip0"><path fill="#fff" transform="translate(.385 .5)" d="M0 0h20v20H0z"/></clipPath></defs></svg>