<svg width="21" height="20" fill="none" xmlns="http://www.w3.org/2000/svg"><g clip-path="url(#clip0)" fill="#fff"><path d="M4.831 6.654H.534v12.903h4.297V6.654zm14.102 1.178c-.903-.985-2.096-1.478-3.58-1.478a5.16 5.16 0 00-1.492.202 3.384 3.384 0 00-1.133.567 5.564 5.564 0 00-.735.677 5.582 5.582 0 00-.508.688V6.654H7.201l.013.625c.009.416.013 1.701.013 3.854s-.008 4.96-.026 8.424h4.284v-7.2c0-.443.047-.794.143-1.055a2.76 2.76 0 01.827-1.113c.37-.3.827-.45 1.374-.45.746 0 1.295.258 1.647.775.352.516.527 1.23.527 2.142v6.9h4.284v-7.395c0-1.9-.451-3.344-1.354-4.329zM2.709.443c-.72 0-1.304.21-1.751.631-.447.421-.67.953-.67 1.595 0 .634.216 1.163.65 1.589.434.425 1.007.638 1.719.638h.026c.73 0 1.317-.213 1.764-.638.447-.426.666-.955.658-1.589-.009-.642-.23-1.174-.664-1.595C4.007.654 3.429.443 2.709.443z"/></g><defs><clipPath id="clip0"><path fill="#fff" transform="translate(.287)" d="M0 0h20v20H0z"/></clipPath></defs></svg>