<svg width="80" height="80" fill="none" xmlns="http://www.w3.org/2000/svg"><g filter="url(#filter0_d)"><path d="M65.448 29.907c.04.04.085.114.124.178l.01.017c.039.065.077.13.116.181l.008.011v.001l.84 1.554h0c1.506 2.826 3.052 5.702 4.604 8.589 1.108 2.062 2.22 4.129 3.32 6.186.366.655 1.176.906 1.814.54.645-.37.895-1.195.533-1.845v-.002c-1.276-2.366-2.556-4.76-3.834-7.147-1.371-2.563-2.74-5.119-4.092-7.628l-3.443-.635zm0 0l-.07.07-.072.07a.085.085 0 01-.022-.04l-.002-.016v-.001l-.003.01a.69.69 0 01-.034.083 4.118 4.118 0 01-.107.214l-7.083 13.219s0 0 0 0c-.57 1.036-1.172 2.135-1.684 3.204h0a1.317 1.317 0 01-1.2.765c-.19 0-.386-.055-.59-.143-.666-.311-.947-1.132-.611-1.814.468-.95.955-1.857 1.43-2.743l.31-.575h0l7.053-13.22.033-.057c.32-.557 1.023-1.778 2.64-1.75 1.642.03 2.31 1.248 2.611 1.8l.004.006h0l.84 1.553-3.443-.635z" fill="#439539" stroke="#F0F0F0" stroke-width=".2"/><mask id="a" fill="#fff"><path d="M78.675 50.114l-.48-.03h-.27c-.06 0-.18-.031-.241-.031-.27-.03-.51-.03-.78-.03H53.85c-.27 0-.51.03-.87.03h-.391l-.48.03c-.39.03-.75.214-.991.518-.24.305-.36.67-.33 1.066l.03.457c.21 3.29 1.59 5.941 4.262 8.134 2.792 2.255 6.454 3.504 10.327 3.504 3.872 0 7.534-1.25 10.326-3.504 2.641-2.193 4.022-4.843 4.232-8.103l.03-.488a1.453 1.453 0 00-1.32-1.553zm-4.743 7.86c-2.282 1.858-5.314 2.863-8.525 2.863-3.212 0-6.244-1.005-8.526-2.863-1.74-1.432-2.731-3.047-3.061-5.057h23.174c-.36 2.01-1.351 3.625-3.062 5.057z"/></mask><path d="M78.675 50.114l-.48-.03h-.27c-.06 0-.18-.031-.241-.031-.27-.03-.51-.03-.78-.03H53.85c-.27 0-.51.03-.87.03h-.391l-.48.03c-.39.03-.75.214-.991.518-.24.305-.36.67-.33 1.066l.03.457c.21 3.29 1.59 5.941 4.262 8.134 2.792 2.255 6.454 3.504 10.327 3.504 3.872 0 7.534-1.25 10.326-3.504 2.641-2.193 4.022-4.843 4.232-8.103l.03-.488a1.453 1.453 0 00-1.32-1.553zm-4.743 7.86c-2.282 1.858-5.314 2.863-8.525 2.863-3.212 0-6.244-1.005-8.526-2.863-1.74-1.432-2.731-3.047-3.061-5.057h23.174c-.36 2.01-1.351 3.625-3.062 5.057z" fill="#439539"/><path d="M78.675 50.114l.015-.2h-.003l-.012.2zm-.48-.03l.012-.2h-.013v.2zm-.511-.031l-.022.199h.022v-.2zm-25.095 0v-.2h-.013l.013.2zm-.48.03l-.013-.2-.003.001.015.2zm-1.321 1.584l.2-.013v-.002l-.2.015zm.03.457l.2-.012-.2.012zm4.262 8.134l-.127.155.002.001.125-.156zm20.653 0l.126.156.002-.002-.128-.154zm4.232-8.103l.2.013-.2-.013zm.03-.488l-.199-.015v.003l.2.012zm-6.063 6.307l.126.155.002-.002-.128-.153zm-17.05 0l-.128.154h.001l.126-.154zm-3.062-5.057v-.2h-.236l.038.232.198-.032zm23.174 0l.197.035.042-.235h-.24v.2zm1.693-3.003l-.48-.03-.025.399.48.03.025-.399zm-.493-.03h-.119v.4h.12v-.4zm-.12 0h-.149v.4h.15v-.4zm-.15 0l-.007-.001a2.316 2.316 0 01-.08-.012l-.071-.011a.608.608 0 00-.082-.007v.4h.007l.02.003a.622.622 0 01.06.01l.071.01a.607.607 0 00.082.007v-.4zm-.218-.03c-.282-.032-.533-.032-.802-.032v.4c.27 0 .5 0 .758.03l.044-.398zm-.802-.032H53.85v.4h23.054v-.4zm-23.054 0c-.142 0-.276.008-.413.016a7.953 7.953 0 01-.458.015v.4c.186 0 .34-.008.48-.016.14-.007.262-.015.39-.015v-.4zm-.87.03h-.121v.4h.121v-.4zm-.121 0h-.27v.4h.271v-.4zm-.283.001l-.48.03.025.4.48-.03-.025-.4zm-.483.031a1.591 1.591 0 00-1.132.593l.314.248a1.19 1.19 0 01.85-.442l-.032-.399zm-1.132.593a1.71 1.71 0 00-.373 1.206l.4-.03a1.31 1.31 0 01.287-.928l-.314-.248zm-.373 1.204l.03.457.4-.027-.03-.457-.4.027zm.03.456c.214 3.348 1.623 6.049 4.335 8.276l.254-.31c-2.63-2.159-3.983-4.759-4.19-7.991l-.399.025zm4.337 8.277c2.83 2.285 6.537 3.548 10.452 3.548v-.4c-3.83 0-7.447-1.236-10.201-3.46l-.251.312zm10.452 3.548c3.914 0 7.622-1.263 10.452-3.548l-.252-.311c-2.753 2.223-6.37 3.459-10.2 3.459v.4zm10.454-3.55c2.681-2.226 4.09-4.927 4.304-8.244l-.4-.026c-.206 3.202-1.558 5.802-4.16 7.963l.256.307zm4.304-8.245l.03-.487-.4-.025-.03.488.4.024zm.03-.484a1.653 1.653 0 00-1.505-1.769l-.03.4a1.25 1.25 0 011.136 1.338l.399.03zm-6.39 6.136c-2.241 1.826-5.227 2.818-8.398 2.818v.4c3.252 0 6.33-1.018 8.651-2.908l-.253-.31zm-8.398 2.818c-3.172 0-6.158-.992-8.4-2.818l-.252.31c2.321 1.89 5.4 2.908 8.652 2.908v-.4zm-8.398-2.818c-1.71-1.405-2.67-2.978-2.992-4.935l-.395.065c.34 2.065 1.36 3.72 3.132 5.18l.255-.31zm-3.19-4.702h.061v-.4h-.059v.4zm.06 0h23.055v-.4H53.88v.4zm23.055 0h.06v-.4h-.059v.4zm-.137-.236c-.351 1.96-1.314 3.534-2.994 4.94l.257.306c1.743-1.458 2.761-3.113 3.13-5.175l-.393-.07z" fill="#F0F0F0" mask="url(#a)"/><path d="M40.302 8.896c0 4.82-3.86 8.765-8.635 8.765C26.89 17.66 23 13.746 23 8.896 23 4.045 26.92.1 31.666.1c4.745 0 8.635 3.975 8.635 8.796zm-2.682-.03c0-3.314-2.654-6.041-5.953-6.041-3.3 0-5.954 2.727-5.954 6.04 0 3.314 2.685 6.04 5.954 6.04 3.268 0 5.953-2.726 5.953-6.04zm-8.955 12.581l-.077.064a146.477 146.477 0 003.003 3.506l.072.08.075-.077.12-.121h0l.005-.006c.282-.33.562-.654.84-.977.695-.808 1.376-1.599 2.042-2.405.401-.48.948-.708 1.434-.812a3.509 3.509 0 011.03-.067v.001h.01a.29.29 0 01.066.012l.004.001c.025.006.06.015.098.017l14.64 3.349.02.005.022-.005 13.028-2.71h0l.003-.001c.723-.17 1.45.31 1.59 1.048h0v.004c.168.738-.308 1.474-1.032 1.616h-.001l-13.328 2.772h0l-.012.003a.908.908 0 01-.54 0v-.001l-.007-.002-14.859-3.32-.01-.002h-.011 0-.001 0-.001 0-.001 0-.001 0-.001 0-.001 0-.001 0-.001 0-.001 0-.001 0-.001 0-.001 0-.001 0-.001 0-.001 0-.001 0-.001 0-.001 0-.001 0-.001 0-.001 0-.001 0-.001 0-.001 0-.001 0-.001 0-.001 0-.001 0-.001 0-.001 0-.001 0-.001 0-.001 0-.001 0-.001 0-.001 0-.001 0-.001 0-.001 0-.001 0-.001 0-.001 0-.001 0-.001 0-.001 0-.001 0-.001 0-.001 0-.001 0-.001 0-.001 0-.001 0-.001 0-.001 0-.001 0-.001 0-.001 0-.001 0-.001 0-.001 0-.001 0-.001 0-.001 0-.001 0-.001 0-.001 0-.001 0-.001 0-.001 0-.001 0-.001 0-.001 0-.001 0-.001 0-.001 0-.001 0-.001 0-.001 0-.001 0-.001 0-.001 0-.001 0-.001 0-.001 0-.001 0-.001 0-.001 0-.001 0-.001 0-.001 0-.001 0-.001 0-.001 0-.001 0-.001 0-.001 0-.001 0-.001 0-.001 0-.001 0-.001 0-.001 0-.001 0-.001 0-.001 0-.001 0-.001 0-.001 0-.001 0-.001 0-.001 0-.001 0-.001 0-.001 0-.001 0-.001 0-.001 0-.001 0-.001 0-.001 0-.001 0-.001 0-.001 0-.001 0-.001 0-.001 0-.001 0-.001 0-.001 0-.001 0-.001 0-.001 0-.001 0-.001 0-.001 0-.001 0-.001 0-.001 0-.001 0-.001 0-.001 0-.001 0-.001 0-.001 0-.001 0-.001 0-.001 0-.001 0-.001 0-.001 0-.047l-.03.035c-.502.591-1.002 1.172-1.507 1.759-.433.502-.87 1.01-1.314 1.53 0 0 0 0 0 0l-1.2 1.37s0 0 0 0a1.344 1.344 0 01-2.011 0l-1.02-1.187c-.312-.363-.624-.723-.934-1.081-.705-.814-1.4-1.617-2.067-2.42l-.043-.053-.064.02-1.642.53a286.1 286.1 0 01-5.067 1.598h-.115v.344h0v.006l1.141 20.716v.007c.038.513.066.905.117 1.21.051.307.127.538.267.722.14.186.338.313.61.43.268.116.621.226 1.082.37h.005s0 0 0 0c.532.172.923.655.95 1.22v.002l1.262 19.558h0c.063.933.825 1.678 1.75 1.678h9.606c.926 0 1.688-.745 1.751-1.678h0l1.26-19.54a.344.344 0 00.026-.085c.005-.03.005-.061.005-.089l1.35-20.102s0 0 0 0c.057-.772.673-1.335 1.424-1.279h.004c.721.029 1.282.679 1.255 1.388l-1.38 20.239a.341.341 0 00-.026.085c-.005.031-.005.061-.005.089v0l-1.26 19.403h0c-.148 2.386-2.116 4.232-4.434 4.232h-9.576c-2.317 0-4.285-1.876-4.432-4.232h0L21.23 51.66l-.004-.065-.061-.022c-1.179-.44-1.873-.886-2.306-1.592-.436-.712-.616-1.703-.721-3.256v-.003l-.03-.333-1.11-20.437v0-.001 0-.001 0-.001 0-.001 0-.001 0-.001 0-.001 0-.001 0-.001 0-.001 0-.001 0-.001 0-.001 0-.001 0-.001 0-.001 0-.001 0-.001 0-.001 0-.001 0-.001 0-.001 0-.001 0-.001 0-.001 0-.001 0-.001 0-.001 0-.001 0-.001 0-.002 0-.001 0-.001 0-.001 0-.001 0-.001 0-.002 0-.001 0-.001 0-.002 0-.001 0-.002 0-.001 0-.002 0-.001 0-.002 0-.001 0-.002 0-.002 0-.002 0-.002 0-.002 0-.002 0-.002 0-.002 0-.002 0-.002 0-.002 0-.001 0-.002 0-.002 0-.001 0-.002 0-.002 0-.001 0-.002 0-.001 0-.002 0-.001 0-.002 0-.001 0-.002 0-.001 0-.002 0-.001 0-.002 0-.002 0-.002 0-.002 0-.002 0-.001 0-.002 0-.002 0-.002 0-.003 0-.002 0-.002 0-.002 0-.003 0-.002 0-.002 0-.002 0-.004 0-.002 0-.003 0-.002 0-.004 0-.002 0-.004 0-.002 0-.004 0-.002 0-.002 0-.003 0-.002 0-.002 0-.003 0-.002 0-.002 0-.003 0-.002 0-.002 0-.004 0-.002 0-.002 0-.004 0-.002 0-.002 0-.004 0-.002 0-.002 0-.004 0-.002 0-.002 0-.004 0-.002 0-.002 0-.004 0-.002 0-.002 0-.005 0-.002 0-.002 0-.004 0-.002 0-.002 0-.003 0-.002 0-.002 0-.004 0-.002 0-.002 0-.003 0-.002 0-.004 0-.002 0-.002 0-.003 0-.002 0-.004 0-.002 0-.003 0-.002 0-.002 0-.002 0-.002 0-.003 0-.002 0-.003 0-.002 0-.002 0-.002 0-.003 0-.002 0-.002 0-.002 0-.002 0-.002 0-.002 0-.002 0-.002 0-.002 0-.001 0-.002 0-.001 0-.002 0-.002 0-.002 0-.001 0-.002 0-.001 0-.002 0-.002 0-.001 0-.002 0-.001 0-.002 0c0-1.328.721-2.325 2-2.739 2.283-.7 4.564-1.432 6.816-2.163h0c.539-.177 1.043-.19 1.505-.053.462.139.89.43 1.27.876l.076-.065zm0 0c-.78-.914-1.771-1.219-2.882-.853l11.437-.061c-.27-.03-1.711-.091-2.552.914-.665.806-1.345 1.596-2.041 2.403-.278.323-.558.648-.84.978l-.05.05.004.006-.075.066-.07-.07.004-.005a145.811 145.811 0 01-2.935-3.428z" fill="#439539" stroke="#F0F0F0" stroke-width=".2"/><path d="M51.757 7.056c1.651.693 2.06 1.109 2.744 2.784.12.292.321.542.58.718a1.56 1.56 0 001.751 0 1.59 1.59 0 00.58-.718c.685-1.675 1.095-2.091 2.746-2.784.288-.122.533-.327.706-.59a1.618 1.618 0 000-1.777 1.583 1.583 0 00-.706-.59c-1.687-.708-2.046-1.066-2.744-2.784a1.596 1.596 0 00-.581-.717 1.56 1.56 0 00-1.751 0c-.26.175-.462.425-.581.717-.698 1.712-1.05 2.076-2.744 2.784a1.583 1.583 0 00-.706.59 1.618 1.618 0 000 1.777c.172.263.418.468.706.59zm4.203-4.553c.722 1.622 1.43 2.34 3.027 3.075-1.58.725-2.31 1.472-3.03 3.076-.72-1.604-1.443-2.35-3.03-3.076 1.598-.735 2.306-1.453 3.03-3.075h.003zm-54.988 9.3c1.651.693 2.06 1.109 2.744 2.784.119.293.321.542.58.718a1.56 1.56 0 001.751 0c.26-.176.461-.425.58-.718.685-1.675 1.095-2.09 2.746-2.784.287-.121.533-.327.706-.59a1.619 1.619 0 000-1.777 1.583 1.583 0 00-.706-.59C7.686 8.138 7.327 7.78 6.629 6.062a1.596 1.596 0 00-.581-.717 1.561 1.561 0 00-1.751 0c-.26.175-.462.425-.581.717C3.018 7.774 2.665 8.138.972 8.846a1.583 1.583 0 00-.707.59 1.618 1.618 0 000 1.777c.173.263.42.469.707.59zM5.175 7.25c.721 1.622 1.43 2.34 3.027 3.075-1.58.726-2.31 1.472-3.03 3.076-.72-1.604-1.443-2.35-3.03-3.075C3.74 9.59 4.447 8.871 5.171 7.25h.003zm44.578 68.978c1.651.694 2.061 1.11 2.744 2.785.12.292.321.542.58.718a1.56 1.56 0 001.751 0 1.59 1.59 0 00.58-.718c.685-1.676 1.095-2.092 2.746-2.785.288-.12.533-.326.706-.59a1.618 1.618 0 000-1.776 1.583 1.583 0 00-.706-.59c-1.687-.708-2.046-1.066-2.744-2.785a1.596 1.596 0 00-.58-.717 1.56 1.56 0 00-1.752 0c-.26.176-.462.425-.581.718-.698 1.712-1.05 2.076-2.744 2.784a1.583 1.583 0 00-.706.59 1.618 1.618 0 000 1.777c.172.263.419.468.706.59zm4.203-4.552c.722 1.622 1.43 2.34 3.027 3.075-1.58.725-2.31 1.471-3.03 3.075-.72-1.604-1.443-2.35-3.03-3.075 1.598-.736 2.306-1.453 3.03-3.075h.003z" fill="#439539"/></g><defs><filter id="filter0_d" x="-4" y="0" width="88" height="88" filterUnits="userSpaceOnUse" color-interpolation-filters="sRGB"><feFlood flood-opacity="0" result="BackgroundImageFix"/><feColorMatrix in="SourceAlpha" values="0 0 0 0 0 0 0 0 0 0 0 0 0 0 0 0 0 0 127 0" result="hardAlpha"/><feOffset dy="4"/><feGaussianBlur stdDeviation="2"/><feComposite in2="hardAlpha" operator="out"/><feColorMatrix values="0 0 0 0 0 0 0 0 0 0 0 0 0 0 0 0 0 0 0.25 0"/><feBlend in2="BackgroundImageFix" result="effect1_dropShadow"/><feBlend in="SourceGraphic" in2="effect1_dropShadow" result="shape"/></filter></defs></svg>