<svg width="10" height="10" viewBox="0 0 10 10" fill="none" xmlns="http://www.w3.org/2000/svg">
<path d="M8.75908 6.41621C8.22277 6.41621 7.69617 6.33233 7.19716 6.16742C6.95264 6.08402 6.65205 6.16053 6.50281 6.31381L5.51786 7.05734C4.37559 6.4476 3.67198 5.74421 3.07056 4.61052L3.79222 3.65123C3.97971 3.46399 4.04696 3.19047 3.96639 2.93383C3.80077 2.4322 3.71664 1.90585 3.71664 1.36931C3.71666 0.981713 3.40133 0.666382 3.01376 0.666382H1.40505C1.01748 0.666382 0.702148 0.981713 0.702148 1.36929C0.702148 5.81194 4.31644 9.42622 8.75908 9.42622C9.14665 9.42622 9.46198 9.11089 9.46198 8.72331V7.1191C9.46196 6.73154 9.14663 6.41621 8.75908 6.41621Z" fill="#242424"/>
</svg>
