<svg width="53" height="80" fill="none" xmlns="http://www.w3.org/2000/svg"><path d="M51.748 18.932l-2.926-2.925c1.712-2.588 1.43-6.117-.848-8.394l-5.66-5.659A6.629 6.629 0 0037.597 0a6.629 6.629 0 00-4.716 1.954 6.624 6.624 0 00-1.953 4.716c0 1.329.388 2.596 1.106 3.678l-6.698 6.7a1.335 1.335 0 00-.323 1.364l1.409 4.226-.927.185a6.994 6.994 0 00-1.59-2.46 6.95 6.95 0 00-4.944-2.05 6.94 6.94 0 00-4.002 1.257 6.944 6.944 0 00-4.002-1.257 6.95 6.95 0 00-4.945 2.05c-2.726 2.726-2.726 7.163 0 9.89l7.614 7.611v8.38C10.97 42.462 6.583 39.98 1.62 39.98c-.736 0-1.334.596-1.334 1.334 0 4.962 2.483 9.349 6.263 12.006H1.62c-.736 0-1.334.596-1.334 1.334v5.336c0 .738.598 1.334 1.334 1.334h1.512l2.503 17.531A1.334 1.334 0 006.956 80h16.008c.665 0 1.226-.488 1.32-1.145l2.505-17.531H28.3c.736 0 1.334-.596 1.334-1.334v-5.336c0-.738-.598-1.334-1.334-1.334h-4.929c3.78-2.657 6.263-7.044 6.263-12.006 0-.738-.598-1.334-1.334-1.334-4.962 0-9.349 2.483-12.006 6.263v-8.379l7.222-7.222h9.757l3.383 3.382a1.33 1.33 0 001.887 0l13.205-13.206a1.333 1.333 0 000-1.886zM33.598 6.67c0-1.07.416-2.075 1.17-2.83 1.514-1.511 4.148-1.511 5.66 0L46.09 9.5c1.227 1.228 1.474 3.055.77 4.541l-4.544-4.542a1.348 1.348 0 00-.521-.321l-5.66-1.887a1.329 1.329 0 00-1.365.322l-.771.77a3.96 3.96 0 01-.4-1.713zm2.474 3.413l4.58 1.526 4.494 4.495-11.32 11.32-4.495-4.493-1.526-4.58 8.267-8.268zM3.037 42.732c5.49.647 9.857 5.016 10.505 10.505-5.49-.648-9.857-5.016-10.505-10.505zm23.93 13.256v2.668h-4.003a1.334 1.334 0 100 2.668h1.13l-2.286 16.008H8.113L5.826 61.324h6.466a1.334 1.334 0 100-2.668H2.954v-2.668h24.012zm-.085-13.256c-.648 5.49-5.014 9.858-10.505 10.505.648-5.49 5.016-9.858 10.505-10.505zM14.96 35.426L7.9 28.365a4.332 4.332 0 010-6.118c1.635-1.634 4.482-1.634 6.117 0 .5.5 1.386.5 1.886 0 1.636-1.634 4.482-1.634 6.118 0 .327.327.59.704.795 1.111l-4.345.869a1.347 1.347 0 00-.681.364l-3.774 3.772a1.334 1.334 0 00.944 2.279h4.784l-4.784 4.784zm3.222-7.452l1.21-1.21 8.336-1.668 2.877 2.878H18.182zm19.417 3.22l-1.887-1.886L47.03 17.989l1.886 1.886L37.6 31.195z" fill="#439539"/></svg>