<svg width="81" height="81" fill="none" xmlns="http://www.w3.org/2000/svg"><path d="M55.169 13.004h1.647v1.614a1.093 1.093 0 102.187 0v-1.614h1.614a1.094 1.094 0 000-2.188h-1.614V9.171a1.094 1.094 0 10-2.187 0v1.645h-1.647a1.094 1.094 0 000 2.188zm-18.951 23.74l4.317 3.403a2.33 2.33 0 002.897 0l4.317-3.403a5.093 5.093 0 001.953-4.024v-.73a4.828 4.828 0 00-7.718-3.863 4.826 4.826 0 00-7.717 3.864v.73a5.09 5.09 0 001.951 4.023zm.236-4.753a2.637 2.637 0 014.688-1.666 1.095 1.095 0 001.695 0 2.638 2.638 0 014.687 1.666v.73a2.92 2.92 0 01-1.118 2.306l-4.317 3.403a.156.156 0 01-.19 0l-4.334-3.403a2.922 2.922 0 01-1.119-2.307l.008-.73zM60.938 61.74a6.147 6.147 0 10-10.937-3.855 6.094 6.094 0 001.406 3.906 8.456 8.456 0 00-4.424 4.328 8.457 8.457 0 00-1.807-.998 6.144 6.144 0 00-4.343-9.988 6.094 6.094 0 00-4.634 1.634 6.166 6.166 0 00-1.956 4.497 6.094 6.094 0 001.406 3.907 8.302 8.302 0 00-1.733.989 8.437 8.437 0 00-4.583-4.428 6.148 6.148 0 00-4.342-9.988 6.094 6.094 0 00-4.634 1.635 6.167 6.167 0 00-1.952 4.506 6.094 6.094 0 001.406 3.906 8.476 8.476 0 00-5.171 7.812v3.533a2.656 2.656 0 002.656 2.657h13.19v.728a2.657 2.657 0 002.657 2.656h14.684a2.656 2.656 0 002.656-2.656v-.728h13.105a2.657 2.657 0 002.656-2.657v-3.525a8.447 8.447 0 00-5.306-7.87zM30.47 72.99v.615H17.285a.469.469 0 01-.469-.469v-3.525a6.292 6.292 0 014.31-5.98 1.74 1.74 0 00.662-2.904 3.96 3.96 0 012.755-6.802c.095 0 .194 0 .29.011a3.958 3.958 0 013.666 3.716v.223a3.967 3.967 0 01-1.184 2.833 1.71 1.71 0 00-.47 1.631 1.736 1.736 0 001.18 1.26 6.265 6.265 0 014.17 4.26 8.467 8.467 0 00-1.72 5.137l-.006-.005zm17.827 3.53a.469.469 0 01-.469.47H33.132a.469.469 0 01-.469-.47v-3.524a6.296 6.296 0 014.31-5.98 1.739 1.739 0 00.662-2.905 3.96 3.96 0 012.755-6.801 3.958 3.958 0 012.778 6.781 1.72 1.72 0 00-.469 1.633 1.738 1.738 0 001.18 1.26 6.277 6.277 0 014.417 6.012v3.525zm15.76-3.384a.469.469 0 01-.47.469H50.483v-.61a8.462 8.462 0 00-1.785-5.221 6.284 6.284 0 014.035-4.142 1.738 1.738 0 00.661-2.905 3.96 3.96 0 116.711-3.077v.225a3.969 3.969 0 01-1.184 2.833 1.706 1.706 0 00-.469 1.631 1.736 1.736 0 001.18 1.26 6.272 6.272 0 014.414 6.012l.01 3.525z" fill="#439539"/><path d="M41.91 51.3h.05a18.419 18.419 0 001.228-36.797v-3.125c.334.035.668.053 1.003.053 1.314 0 3.085-.274 4.511-1.489 1.72-1.464 2.477-3.857 2.241-7.115a1.094 1.094 0 00-1.01-1.013c-3.259-.236-5.652.52-7.117 2.243-.245.29-.461.604-.645.937a5.739 5.739 0 00-.645-.937c-1.464-1.72-3.86-2.479-7.116-2.243a1.094 1.094 0 00-1.004 1.02c-.235 3.257.518 5.65 2.242 7.115 1.426 1.214 3.197 1.489 4.51 1.489.312 0 .6-.016.85-.04v3.09c-1.794.09-3.566.443-5.259 1.048a18.561 18.561 0 00-6.91 4.424A18.418 18.418 0 0041.917 51.3h-.008zm2.572-45.82c.856-1.006 2.305-1.514 4.316-1.514 0 2.006-.505 3.453-1.505 4.31-1.169 1-2.813 1.027-3.75.946-.078-.93-.05-2.58.94-3.742zm-3.684 3.74c-.938.083-2.581.055-3.75-.937-1-.856-1.505-2.303-1.505-4.31 2.006 0 3.452.505 4.308 1.505 1.001 1.161 1.03 2.814.947 3.743zm14.544 14.47a16.13 16.13 0 012.85 9.235 16.354 16.354 0 01-.096 1.71c-.469-.761-.69-.836-.901-.907-.266-.089-1.741-.759-3.058-1.417a.47.47 0 01-.09-.056c-.027-.156.157-.611.238-.808.098-.22.175-.447.23-.681.14-.705-.32-1.433-.855-2.275-.197-.313-.525-.828-.565-.998-.218-1.302-1.946-1.875-3.775-2.488-2.514-.84-4.383-1.688-5.553-2.523l-.05-.038c.247-.27.52-.516.814-.734.612-.49 1.192-.952 1.19-1.647.022-.313.527-1.547 1.094-2.672a16.264 16.264 0 018.527 6.3zM30.39 21.495a16.164 16.164 0 0111.562-4.845H42a16.1 16.1 0 012.947.278c-.404.833-.976 2.116-1.084 2.892a7.84 7.84 0 01-.505.425c-.71.569-1.597 1.277-1.562 2.286.01.392.173.967.887 1.478 1.34.958 3.32 1.866 6.05 2.775.73.244 2.23.744 2.531 1.094.105.495.436 1.019.818 1.619.213.317.404.648.571.992a6.156 6.156 0 01-.1.255c-.265.651-.97 2.385.752 3.246 1.036.52 2.44 1.178 3.08 1.436.413.703.785 1.43 1.114 2.177a16.092 16.092 0 01-2.25 4.61 16.378 16.378 0 01-1.658 2 16.105 16.105 0 01-11.625 4.902h-.045a16.158 16.158 0 01-5.902-1.134 3.984 3.984 0 00.898-2.023 3.127 3.127 0 00-.56-2.22l-.13-.157-.186-.094c-.756-.38-1.547-1.228-1.99-1.772.295-1.159.673-3.137.134-4.098a1.377 1.377 0 00-.84-.675 7.302 7.302 0 01-3.867-2.628c-.043-1.963-1.917-5.499-2.764-7 .027-.072.05-.144.077-.216a16.136 16.136 0 013.6-5.603zm-4.399 8.45c.965 1.925 1.704 3.81 1.608 4.506l-.044.32.165.28c.062.108 1.545 2.585 4.856 3.613.067.519-.127 1.839-.453 2.995l-.122.433.26.367c.054.074 1.24 1.719 2.688 2.563.1.224.137.47.107.714-.055.453-.333.937-.813 1.42a16.196 16.196 0 01-8.516-14.319c.003-.97.092-1.938.264-2.892z" fill="#439539"/></svg>