<svg width="21" height="21" fill="none" xmlns="http://www.w3.org/2000/svg"><g clip-path="url(#clip0)"><path d="M20.385 4.299a8.55 8.55 0 01-2.363.647 4.077 4.077 0 001.804-2.266 8.194 8.194 0 01-2.6.992 4.099 4.099 0 00-7.092 2.804c0 .325.027.638.095.935-3.41-.166-6.425-1.8-8.452-4.288a4.128 4.128 0 00-.561 2.072c0 1.42.731 2.679 1.821 3.407a4.05 4.05 0 01-1.852-.505v.046A4.119 4.119 0 004.47 12.17a4.09 4.09 0 01-1.075.135c-.263 0-.528-.015-.776-.07.53 1.624 2.038 2.818 3.83 2.856a8.238 8.238 0 01-5.083 1.75 7.67 7.67 0 01-.981-.057 11.543 11.543 0 006.29 1.84c7.545 0 11.67-6.25 11.67-11.668 0-.18-.006-.356-.015-.53A8.18 8.18 0 0020.385 4.3z" fill="#0071CE"/></g><defs><clipPath id="clip0"><path fill="#fff" transform="translate(.385 .5)" d="M0 0h20v20H0z"/></clipPath></defs></svg>