<svg width="21" height="14" fill="none" xmlns="http://www.w3.org/2000/svg"><path d="M19.437 1.45C18.895.485 18.306.307 17.107.24 15.91.159 12.898.125 10.29.125c-2.614 0-5.627.034-6.823.114C2.271.308 1.681.484 1.133 1.45.575 2.414.287 4.074.287 6.996v.01c0 2.91.288 4.583.846 5.537.548.965 1.137 1.14 2.333 1.22 1.197.07 4.21.112 6.824.112 2.608 0 5.62-.041 6.818-.11 1.2-.081 1.788-.256 2.33-1.221.564-.954.85-2.627.85-5.537v-.01c0-2.923-.286-4.583-.85-5.547zm-11.65 9.3v-7.5L14.037 7l-6.25 3.75z" fill="#fff"/></svg>