<?xml version="1.0" encoding="utf-8"?><!DOCTYPE svg  PUBLIC '-//W3C//DTD SVG 1.1//EN'  'http://www.w3.org/Graphics/SVG/1.1/DTD/svg11.dtd'><svg viewBox="0 0 1440 894" xmlns="http://www.w3.org/2000/svg" xmlns:xlink="http://www.w3.org/1999/xlink"><svg viewBox="0 0 9 9" id="arrow-down" xmlns="http://www.w3.org/2000/svg"><path d="M2 4.36l2.36 2.361 2.362-2.36" stroke-width="2" stroke-linecap="round" stroke-linejoin="round"/></svg><svg viewBox="0 0 7 7" id="arrow-down-grey" xmlns="http://www.w3.org/2000/svg"><path d="M1 3.36l2.36 2.361 2.362-2.36" stroke-width=".5" stroke-linecap="round" stroke-linejoin="round"/></svg><svg viewBox="0 0 11 13" id="arrow-right" xmlns="http://www.w3.org/2000/svg"><path d="M10.166 6.498L.869 1.13v10.736l9.297-5.368z" stroke-linejoin="round"/></svg><svg viewBox="0 0 21 20" id="arrow-up-right" xmlns="http://www.w3.org/2000/svg"><path d="M6.171 14.167l8.334-8.334M6.171 5.833h8.334v8.334" stroke-linecap="round" stroke-linejoin="round"/></svg><svg viewBox="0 0 40 40" id="arrow-up-right-black" xmlns="http://www.w3.org/2000/svg"><path d="M15.677 23.432L24.01 15.1M15.677 15.099h8.333v8.333" stroke-linecap="round" stroke-linejoin="round"/><circle cx="20" cy="20" r="19.5"/></svg><svg viewBox="0 0 40 40" id="btn-arrow" xmlns="http://www.w3.org/2000/svg"><path d="M15.677 23.432l8.334-8.333M15.677 15.099h8.334v8.333" stroke-linecap="round" stroke-linejoin="round"/><circle cx="20" cy="20" r="19.5"/></svg><svg viewBox="0 0 512 512" id="check" xmlns="http://www.w3.org/2000/svg"><path d="M504.502 75.496c-9.997-9.998-26.205-9.998-36.204 0L161.594 382.203 43.702 264.311c-9.997-9.998-26.205-9.997-36.204 0-9.998 9.997-9.998 26.205 0 36.203l135.994 135.992c9.994 9.997 26.214 9.99 36.204 0L504.502 111.7c9.998-9.997 9.997-26.206 0-36.204z"/></svg><svg viewBox="0 0 20 20" id="close" xmlns="http://www.w3.org/2000/svg"><path d="M15 5L5 15M5 5l10 10" stroke-width="2" stroke-linecap="round" stroke-linejoin="round"/></svg><svg viewBox="0 0 20 20" id="close-black" xmlns="http://www.w3.org/2000/svg"><path d="M15 5L5 15M5 5l10 10" stroke-width="2" stroke-linecap="round" stroke-linejoin="round"/></svg><svg viewBox="0 0 512 512" fill-rule="evenodd" clip-rule="evenodd" stroke-linejoin="round" stroke-miterlimit="2" id="facebook" xmlns="http://www.w3.org/2000/svg"><path d="M255.022 511.998l.229.001h-.079l-.15-.001zm1.806.001h-.079l.229-.001-.15.001zm-2.588-.005l.247.001h-.142l-.105-.001zm3.415.001h-.142l.247-.001-.105.001zm-4.169-.007l.165.001-.132-.001h-.033zm4.995 0l-.132.001.165-.001h-.033zm.826-.009l-.058.001.223-.003-.165.002zm-6.779-.002l.223.003-.058-.001-.165-.002zm7.604-.01l-.135.002.275-.004-.14.002zm-8.404-.002l.275.004-.135-.002-.14-.002zm9.228-.012l-.182.003.254-.005-.072.002zm-9.984-.002l.254.005-.182-.003-.072-.002zm-.937-.019l.225.005-.04-.001-.185-.004zm11.745.004l-.04.001.225-.005-.185.004zm-12.567-.025l.309.008-.125-.003-.184-.005zm13.39.005l-.125.003.309-.008-.184.005zm.823-.022l-.201.006.316-.009-.115.003zm-14.967-.003l.316.009-.201-.006-.115-.003zm-.72-.022l.225.007-.212-.007-.194-.006.181.006zm16.509 0l-.212.007.225-.007.181-.006-.194.006zm.821-.027l-.112.004.345-.012-.233.008zm-18.371-.008l.345.012-.112-.004-.233-.008zm-.749-.028l.362.013-.201-.007-.161-.006zm19.941.006l-.201.007.362-.013-.161.006zm-20.676-.036l.354.015-.277-.011-.077-.004zm21.495.004l-.277.011.354-.015-.077.004zm-22.525-.049l.38.017-.093-.003-.287-.014zm23.345.014l-.093.003.38-.017-.287.014zm-24.084-.048l.394.018-.186-.008-.208-.01zm24.902.01l-.186.008.394-.018-.208.01zm-25.63-.047l.397.02-.279-.013-.118-.007zm26.448.007l-.279.013.397-.02-.118.007zm.818-.043l-.362.019.321-.017.378-.021-.337.019zm-27.925.002l.321.017-.362-.019-.337-.019.378.021zm28.741-.048l-.16.009.406-.023-.246.014zm-29.844-.014l.406.023-.16-.009-.246-.014zm-.722-.043l.405.024-.253-.014-.152-.01zm31.382.01l-.253.014.405-.024-.152.01zm-32.071-.053l.365.023-.34-.021-.342-.022.317.02zm32.887.002l-.34.021.365-.023.317-.02-.342.022zm.814-.053l-.122.008.387-.026-.265.018zm-34.755-.018l.387.026-.122-.008-.265-.018zm-.721-.05l.38.027-.208-.014-.172-.013zm36.29.013l-.208.014.38-.027-.172.013zm-37.009-.064l.349.025-.271-.019-.078-.006zm37.822.006l-.271.019.349-.025-.078.006zm-38.789-.079l.306.023-.074-.005-.232-.018zm39.602.018l-.074.005.306-.023-.232.018zm.811-.063l-.146.011.311-.025-.165.014zm-41.157-.014l.311.025-.146-.011-.165-.014zm-.725-.059l.264.022-.186-.015-.078-.007zm42.694.007l-.186.015.264-.022-.078.007zm-43.492-.074l.079.007-.013-.001-.066-.006zm44.302.006l-.013.001.079-.007-.066.006zm.81-.071l-.072.006.181-.016-.109.01zm-45.965-.01l.181.016-.072-.006-.109-.01zm-.75-.068l.135.013-.084-.008-.051-.005zm47.523.005l-.084.008.135-.013-.051.005zM216 508.887C93.681 489.661 0 383.684 0 256 0 114.71 114.71 0 256 0c141.29 0 256 114.71 256 256 0 127.684-93.681 233.661-216 252.887V330h59.65L367 256h-71v-48.021c0-20.245 9.918-39.979 41.719-39.979H370v-63s-29.296-5-57.305-5C254.219 100 216 135.44 216 199.6V256h-65v74h65v178.887z"/></svg><svg viewBox="0 0 78 77" id="green-earth" xmlns="http://www.w3.org/2000/svg"><path d="M76.826 25.767h-7.575a32.234 32.234 0 00-3.095-5.634 31.474 31.474 0 00-1.678-2.222c.58-1.278.804-2.886.665-4.808a1.094 1.094 0 00-1.019-1.012c-1.98-.143-3.626.1-4.921.722a32.453 32.453 0 00-11.596-5.685c.233-1.117.301-2.263.202-3.4a1.094 1.094 0 00-1.013-1.012c-3.106-.224-5.39.498-6.79 2.145-.215.25-.405.52-.57.806a5.33 5.33 0 00-.568-.81c-1.406-1.648-3.683-2.37-6.79-2.146a1.093 1.093 0 00-1.013 1.013c-.1 1.133-.032 2.275.2 3.389-.938.241-1.86.525-2.766.851a32.587 32.587 0 00-9.639 5.486c-1.406-1.094-3.409-1.548-5.97-1.364a1.093 1.093 0 00-1.013 1.012c-.192 2.657.313 4.71 1.49 6.126a32.433 32.433 0 00-2.138 35.212 32.472 32.472 0 005 6.65h-3.608a3.785 3.785 0 00-3.78 3.78 1.592 1.592 0 01-1.592 1.592H1.845a1.094 1.094 0 100 2.187h5.404a3.783 3.783 0 003.779-3.78 1.594 1.594 0 011.592-1.591h5.953a32.314 32.314 0 0020.781 7.61h.083a32.132 32.132 0 0023.205-9.79 32.513 32.513 0 003.31-3.99 32.468 32.468 0 004.141-29.15h6.733a1.094 1.094 0 000-2.187zm-15.24-7.547c-1.074.92-2.585.961-3.466.89-.07-.88-.028-2.388.88-3.457.792-.937 2.13-1.406 3.99-1.406-.01 1.845-.481 3.181-1.405 3.973zM41.67 6.278c.793-.937 2.132-1.406 3.99-1.406-.008 1.853-.48 3.19-1.405 3.981-1.07.911-2.583.955-3.464.877-.07-.875-.029-2.383.88-3.452zm-4.476-.01c.919 1.074.96 2.587.887 3.466-.881.072-2.392.03-3.465-.889-.924-.79-1.396-2.128-1.407-3.98 1.852.009 3.193.479 3.985 1.404zm-10.72 7.97c-.01 1.853-.48 3.189-1.407 3.98-1.073.921-2.586.962-3.466.89-.071-.881-.03-2.392.888-3.466.794-.923 2.131-1.395 3.978-1.403l.006-.001zm-8.468 1.406c.919 1.072.961 2.584.89 3.464-.88.072-2.39.03-3.458-.88-.938-.79-1.407-2.131-1.407-3.989 1.845.01 3.183.48 3.975 1.405zm-.312 30.923a5.677 5.677 0 01-4.81 6.336 30.268 30.268 0 01-1.798-24.892 7.847 7.847 0 018.305 12.383 8.34 8.34 0 00-1.696 6.173h-.001zm23.403 22.085v-.255a4.644 4.644 0 014.637-4.64c1.82 0 3.136 1 3.92 1.84.299.321.568.669.805 1.038a30.072 30.072 0 01-9.362 2.017zm28.555-30.09a30.014 30.014 0 01-5.488 17.283 30.445 30.445 0 01-11.958 10.041 9.274 9.274 0 00-1.178-1.563c-1.467-1.57-3.345-2.435-5.29-2.435a6.522 6.522 0 00-6.513 6.515v.297a30.178 30.178 0 01-15.258-4.258 29.924 29.924 0 01-1.801-1.168h3.898a1.094 1.094 0 100-2.188h-6.672a30.362 30.362 0 01-5.503-6.472 7.528 7.528 0 005.666-8.29 6.447 6.447 0 011.314-4.782 9.724 9.724 0 00-8.922-15.623 29.798 29.798 0 013.125-5.322 7.188 7.188 0 003.27.722c.208 0 .403 0 .584-.019v3.778a1.094 1.094 0 002.188 0v-3.82c.351.04.704.061 1.058.06 1.25 0 2.947-.262 4.312-1.423 1.647-1.406 2.37-3.686 2.144-6.792a1.094 1.094 0 00-1.01-1.012c-1.052-.09-2.11-.04-3.15.147a29.956 29.956 0 014.776-2.21c.93-.334 1.875-.625 2.831-.858.304.51.69.965 1.14 1.35 1.366 1.161 3.058 1.424 4.315 1.424.301 0 .58-.014.82-.036v3.795a1.094 1.094 0 102.188 0v-3.795c.24.022.518.036.82.036 1.25 0 2.948-.263 4.314-1.424a5.5 5.5 0 001.134-1.339c3.82.962 7.415 2.66 10.585 5l-.05.057c-.217.25-.41.519-.577.804a5.32 5.32 0 00-.569-.81c-1.406-1.647-3.684-2.37-6.79-2.146a1.094 1.094 0 00-1.013 1.012c-.225 3.107.497 5.393 2.144 6.793 1.366 1.16 3.058 1.423 4.312 1.423.293 0 .558-.014.793-.034v3.793a1.094 1.094 0 102.187 0V21.28c.248.023.536.039.85.039 1.25 0 2.948-.263 4.314-1.424.053-.045.103-.093.156-.142a30.078 30.078 0 013.71 6.014h-3.477a3.783 3.783 0 00-3.778 3.778 1.594 1.594 0 01-1.592 1.591h-5.406a1.094 1.094 0 000 2.188h5.406a3.784 3.784 0 003.78-3.78 1.594 1.594 0 011.59-1.59h4.39a30.176 30.176 0 011.88 10.609zM55.41 19.106c-.88.072-2.392.03-3.465-.89-.925-.791-1.396-2.127-1.407-3.98 1.854.009 3.191.48 3.983 1.406.92 1.076.963 2.589.89 3.464z"/><path d="M48.785 37.802a4.392 4.392 0 00-4.387 4.386 1.25 1.25 0 002.5 0 1.887 1.887 0 013.773 0 1.25 1.25 0 002.5 0 4.39 4.39 0 00-4.386-4.386zM44.389 47.314a1.25 1.25 0 00-1.25 1.25 4.236 4.236 0 11-8.472 0 1.25 1.25 0 00-2.5 0 6.736 6.736 0 0013.472 0 1.25 1.25 0 00-1.25-1.25zM33.441 42.187a4.388 4.388 0 00-8.773 0 1.25 1.25 0 102.5 0 1.887 1.887 0 013.773 0 1.25 1.25 0 102.5 0zM72.445 69.833c-1.758-.728-2.13-1.102-2.852-2.858a1.64 1.64 0 00-3.031 0c-.728 1.756-1.102 2.13-2.858 2.858a1.64 1.64 0 000 3.031c1.719.71 2.145 1.139 2.856 2.856a1.64 1.64 0 003.033 0c.71-1.719 1.139-2.147 2.856-2.858a1.64 1.64 0 000-3.03h-.004zm-4.375 4.67c-.75-1.645-1.51-2.405-3.155-3.155 1.662-.753 2.4-1.49 3.154-3.154.754 1.664 1.491 2.401 3.155 3.154-1.642.75-2.403 1.507-3.151 3.155h-.003zM3.754 7.845c1.719.711 2.145 1.138 2.856 2.856a1.64 1.64 0 003.032 0c.712-1.718 1.139-2.145 2.857-2.856a1.642 1.642 0 000-3.033c-1.756-.726-2.13-1.093-2.856-2.856a1.642 1.642 0 00-3.033 0c-.726 1.756-1.093 2.13-2.856 2.856a1.642 1.642 0 000 3.033zm4.375-4.67c.752 1.664 1.49 2.4 3.152 3.155-1.646.743-2.405 1.509-3.155 3.154C7.378 7.84 6.624 7.074 4.97 6.33c1.664-.755 2.402-1.491 3.155-3.155h.003z"/></svg><svg viewBox="0 0 21 21" id="instagram" xmlns="http://www.w3.org/2000/svg"><g clip-path="url(#alclip0)"><path d="M14.135.5h-7.5a6.25 6.25 0 00-6.25 6.25v7.5a6.25 6.25 0 006.25 6.25h7.5a6.25 6.25 0 006.25-6.25v-7.5A6.25 6.25 0 0014.135.5zm4.375 13.75a4.38 4.38 0 01-4.375 4.375h-7.5A4.38 4.38 0 012.26 14.25v-7.5a4.38 4.38 0 014.375-4.375h7.5A4.38 4.38 0 0118.51 6.75v7.5z"/><path d="M10.385 5.5a5 5 0 100 10 5 5 0 000-10zm0 8.125A3.13 3.13 0 017.26 10.5a3.129 3.129 0 013.125-3.125A3.129 3.129 0 0113.51 10.5a3.13 3.13 0 01-3.125 3.125zM15.76 5.791a.666.666 0 100-1.333.666.666 0 000 1.333z"/></g><defs><clipPath id="alclip0"><path transform="translate(.385 .5)" d="M0 0h20v20H0z"/></clipPath></defs></svg><svg viewBox="0 0 1440 894" id="lines" xmlns="http://www.w3.org/2000/svg"><path d="M0 1c257.687 9.965 564.916 227.358 718.969 594.473C880 979.217 1356.57 854.736 1442.2 621.1"/><path d="M0 44.751c208.947 25.578 451.32 149.1 623.317 508.159C856.934 1040.61 1329.28 922.945 1440 702.97"/></svg><svg viewBox="0 0 1440 894" id="lines-2" xmlns="http://www.w3.org/2000/svg"><path d="M1439.46 893.391c-257.69-9.965-564.915-227.358-718.968-594.474C559.461-84.827 82.894 39.655-2.74 273.291"/><path d="M1439.46 849.64c-208.95-25.579-451.32-149.101-623.316-508.159C582.527-146.215 110.178-28.554-.539 191.421"/></svg><svg viewBox="0 0 21 20" id="linkedin" xmlns="http://www.w3.org/2000/svg"><g clip-path="url(#aoclip0)"><path d="M4.831 6.654H.534v12.903h4.297V6.654zM18.933 7.832c-.903-.985-2.096-1.478-3.58-1.478a5.16 5.16 0 00-1.492.202 3.384 3.384 0 00-1.133.567 5.564 5.564 0 00-.735.677 5.582 5.582 0 00-.508.688V6.654H7.201l.013.625c.009.416.013 1.701.013 3.854s-.008 4.96-.026 8.424h4.284v-7.2c0-.443.047-.794.143-1.055.182-.443.458-.814.827-1.113.37-.3.827-.45 1.374-.45.746 0 1.295.258 1.647.775.352.516.527 1.23.527 2.142v6.9h4.284v-7.395c0-1.9-.451-3.344-1.354-4.329zM2.709.443c-.72 0-1.304.21-1.751.631-.447.421-.67.953-.67 1.595 0 .634.216 1.163.65 1.589.434.425 1.007.638 1.719.638h.026c.73 0 1.317-.213 1.764-.638.447-.426.666-.955.658-1.589-.009-.642-.23-1.174-.664-1.595C4.007.654 3.429.443 2.709.443z"/></g><defs><clipPath id="aoclip0"><path transform="translate(.287)" d="M0 0h20v20H0z"/></clipPath></defs></svg><svg viewBox="0 0 8 7" id="mail" xmlns="http://www.w3.org/2000/svg"><path d="M7.958 2.412v3.494C7.958 6.51 7.468 7 6.864 7H1.135A1.094 1.094 0 01.042 5.906V2.412L3.874 4.52a.26.26 0 00.251 0l3.833-2.109zM6.864.75a1.094 1.094 0 011.094 1.067L4 3.995.042 1.817V1.8A1.094 1.094 0 011.135.75h5.73z"/></svg><svg viewBox="0 0 80 80" id="man" xmlns="http://www.w3.org/2000/svg"><g filter="url(#aqfilter0_d)"><path d="M65.448 29.907c.04.04.085.114.124.178l.01.017c.039.065.077.13.116.181l.008.011v.001l.84 1.554h0c1.506 2.826 3.052 5.702 4.604 8.589 1.108 2.062 2.22 4.129 3.32 6.186.366.655 1.176.906 1.814.54.645-.37.895-1.195.533-1.845v-.002c-1.276-2.366-2.556-4.76-3.834-7.147-1.371-2.563-2.74-5.119-4.092-7.628l-3.443-.635zm0 0l-.07.07-.072.07a.085.085 0 01-.022-.04l-.002-.016v-.001l-.003.01a.69.69 0 01-.034.083 4.118 4.118 0 01-.107.214l-7.083 13.219s0 0 0 0c-.57 1.036-1.172 2.135-1.684 3.204h0a1.317 1.317 0 01-1.2.765c-.19 0-.386-.055-.59-.143-.666-.311-.947-1.132-.611-1.814.468-.95.955-1.857 1.43-2.743l.31-.575h0l7.053-13.22.033-.057c.32-.557 1.023-1.778 2.64-1.75 1.642.03 2.31 1.248 2.611 1.8l.004.006h0l.84 1.553-3.443-.635z" stroke-width=".2"/><mask id="aqa"><path d="M78.675 50.114l-.48-.03h-.27c-.06 0-.18-.031-.241-.031-.27-.03-.51-.03-.78-.03H53.85c-.27 0-.51.03-.87.03h-.391l-.48.03c-.39.03-.75.214-.991.518-.24.305-.36.67-.33 1.066l.03.457c.21 3.29 1.59 5.941 4.262 8.134 2.792 2.255 6.454 3.504 10.327 3.504 3.872 0 7.534-1.25 10.326-3.504 2.641-2.193 4.022-4.843 4.232-8.103l.03-.488a1.453 1.453 0 00-1.32-1.553zm-4.743 7.86c-2.282 1.858-5.314 2.863-8.525 2.863-3.212 0-6.244-1.005-8.526-2.863-1.74-1.432-2.731-3.047-3.061-5.057H76.994c-.36 2.01-1.351 3.625-3.062 5.057z"/></mask><path d="M78.675 50.114l-.48-.03h-.27c-.06 0-.18-.031-.241-.031-.27-.03-.51-.03-.78-.03H53.85c-.27 0-.51.03-.87.03h-.391l-.48.03c-.39.03-.75.214-.991.518-.24.305-.36.67-.33 1.066l.03.457c.21 3.29 1.59 5.941 4.262 8.134 2.792 2.255 6.454 3.504 10.327 3.504 3.872 0 7.534-1.25 10.326-3.504 2.641-2.193 4.022-4.843 4.232-8.103l.03-.488a1.453 1.453 0 00-1.32-1.553zm-4.743 7.86c-2.282 1.858-5.314 2.863-8.525 2.863-3.212 0-6.244-1.005-8.526-2.863-1.74-1.432-2.731-3.047-3.061-5.057H76.994c-.36 2.01-1.351 3.625-3.062 5.057z"/><path d="M78.675 50.114l.015-.2h-.003l-.012.2zm-.48-.03l.012-.2h-.013v.2zm-.511-.031l-.022.199h.022v-.2zm-25.095 0v-.2h-.013l.013.2zm-.48.03l-.013-.2-.003.001.015.2zm-1.321 1.584l.2-.013v-.002l-.2.015zm.03.457l.2-.012-.2.012zm4.262 8.134l-.127.155.002.001.125-.156zm20.653 0l.126.156.002-.002-.128-.154zm4.232-8.103l.2.013-.2-.013zm.03-.488l-.199-.015v.003l.2.012zm-6.063 6.307l.126.155.002-.002-.128-.153zm-17.05 0l-.128.154h.001l.126-.154zm-3.062-5.057v-.2h-.236l.038.232.198-.032zm23.174 0l.197.035.042-.235h-.24v.2zm1.693-3.003l-.48-.03-.025.399.48.03.025-.399zm-.493-.03h-.002-.001-.002-.001-.002-.002-.001-.002-.002-.002-.002-.001-.001-.001-.002-.001-.001-.003-.001-.001-.001-.001-.001-.001-.001-.001-.001-.003-.001-.002-.001-.002-.001-.001-.001-.001-.002-.001-.002-.001-.003-.001-.001-.001-.001-.001-.001-.001-.001-.001-.001-.001-.003-.001-.001-.002-.001-.001-.001-.002-.002-.002-.002-.001-.002-.001-.002-.001-.003-.001-.001-.001-.004-.001-.001-.001-.001-.001-.001-.005-.001-.001v.4H78.195v-.4zm-.12 0h-.001-.003-.001-.001-.001-.003-.001-.001-.001-.001-.003-.001-.001-.001-.001-.003-.001-.001-.001-.001-.001-.004-.001-.001-.001-.001-.001-.006-.001-.001-.001-.001-.001-.001-.001-.001-.001-.001-.001-.001-.001-.001-.001-.001-.001-.001-.001-.001-.001-.001-.001-.005H78 78h-.001-.001-.003-.001-.001-.003-.001-.003-.001-.002-.001-.002-.001-.002-.002-.001-.001-.001-.001-.001-.001-.002-.002-.001-.002-.001-.003-.001-.001-.001-.007-.001-.001-.001-.002-.001-.002-.002-.001-.002-.001-.001-.001-.001-.001-.001-.002-.002v.4H78.075v-.4zm-.15 0l-.007-.001a2.316 2.316 0 01-.08-.012l-.071-.011a.608.608 0 00-.082-.007v.4h.007l.02.003c.017.002.037.005.06.01l.071.01a.607.607 0 00.082.007v-.4zm-.218-.03c-.282-.032-.533-.032-.802-.032v.4c.27 0 .5 0 .758.03l.044-.398zm-.802-.032H53.85v.4h23.054v-.4zm-23.054 0c-.142 0-.276.008-.413.016a7.953 7.953 0 01-.458.015v.4c.186 0 .34-.008.48-.016.14-.007.262-.015.39-.015v-.4zm-.87.03h-.001-.001-.001-.001-.001-.001-.001-.001-.003-.001-.001-.002-.002-.002-.002-.001-.001-.007-.001-.001-.002-.002-.002-.001-.001-.001-.003-.001-.001-.001-.002-.001-.001-.001-.001-.001-.001-.002-.001-.002-.001-.002-.001-.002-.001-.001-.001-.001-.002-.001-.003-.001-.001-.001-.003-.001-.002-.002-.001-.002-.001-.001-.001-.001-.001-.001-.001-.002-.001-.002-.002-.002-.001-.002-.001-.001-.001-.007-.001-.001v.4H52.98v-.4zm-.121 0h-.001-.001-.003-.001-.001-.001-.003-.001-.001-.003-.001-.001-.001-.002-.001-.001-.003-.001-.002-.001-.001-.002-.001-.002-.001-.002-.001-.002-.001-.002-.002-.001-.002-.002-.002-.002-.002-.002-.002-.002-.001-.002-.002-.001-.002-.001-.002-.001-.002-.001-.001-.002-.001-.001-.003-.001-.001-.003-.001-.001-.001-.001-.001-.005-.001-.001-.001-.001-.001-.001-.001-.001-.001-.001-.001-.001-.005-.001-.001-.001-.001-.001-.003-.001-.001-.001-.003-.001-.001-.004-.004-.002-.001-.001-.003-.003-.003-.001-.001-.002-.001-.004-.001-.006-.001-.001-.001-.001-.001-.001-.001-.001-.001-.001-.001-.001-.001-.001-.002-.005-.001-.001-.005-.005-.003-.005-.003-.003-.001-.003-.003-.003-.001-.003-.001-.003-.001-.003-.001-.003-.001-.001-.003-.001-.001-.003-.001-.001-.003-.002-.001-.005-.001-.001v.4H52.86v-.4zm-.283.001l-.48.03.025.4.48-.03-.025-.4zm-.483.031a1.591 1.591 0 00-1.132.593l.314.248c.203-.258.511-.416.85-.442l-.032-.399zm-1.132.593a1.71 1.71 0 00-.373 1.206l.4-.03a1.31 1.31 0 01.287-.928l-.314-.248zm-.373 1.204l.03.457.4-.027-.03-.457-.4.027zm.03.456c.214 3.348 1.623 6.049 4.335 8.276l.254-.31c-2.63-2.159-3.983-4.759-4.19-7.991l-.399.025zm4.337 8.277c2.83 2.285 6.537 3.548 10.452 3.548v-.4c-3.83 0-7.447-1.236-10.201-3.46l-.251.312zm10.452 3.548c3.914 0 7.622-1.263 10.452-3.548l-.252-.311c-2.753 2.223-6.37 3.459-10.2 3.459v.4zm10.454-3.55c2.681-2.226 4.09-4.927 4.304-8.244l-.4-.026c-.206 3.202-1.558 5.802-4.16 7.963l.256.307zm4.304-8.245l.03-.487-.4-.025-.03.488.4.024zm.03-.484a1.653 1.653 0 00-1.505-1.769l-.03.4c.669.051 1.188.655 1.136 1.338l.399.03zm-6.39 6.136c-2.241 1.826-5.227 2.818-8.398 2.818v.4c3.252 0 6.33-1.018 8.651-2.908l-.253-.31zm-8.398 2.818c-3.172 0-6.158-.992-8.4-2.818l-.252.31c2.321 1.89 5.4 2.908 8.652 2.908v-.4zm-8.398-2.818c-1.71-1.405-2.67-2.978-2.992-4.935l-.395.065c.34 2.065 1.36 3.72 3.132 5.18l.255-.31zm-3.19-4.702H53.88v-.4h-.001-.002-.001-.003-.002-.001-.001-.001-.001-.002-.001-.001-.002-.001-.002-.002-.001-.002-.001-.002-.001-.001-.001-.001-.001-.001-.002-.001-.001-.003-.004-.002-.001-.001-.002-.002-.001-.001-.002v.4zm.06 0h23.055v-.4H53.88v.4zm23.055 0H76.994v-.4h-.003-.001-.001-.004-.001-.001-.001-.001-.002-.001-.001-.001-.002-.002-.005-.001-.002-.001-.003-.001-.004-.004-.004-.001-.001-.001-.001-.001-.001-.002-.001-.001-.001-.001v.4zm-.137-.236c-.351 1.96-1.314 3.534-2.994 4.94l.257.306c1.743-1.458 2.761-3.113 3.13-5.175l-.393-.07z" mask="url(#aqa)"/><path d="M40.302 8.896c0 4.82-3.86 8.765-8.635 8.765C26.89 17.66 23 13.746 23 8.896c0-4.851 3.92-8.796 8.666-8.796 4.745 0 8.635 3.975 8.635 8.796zm-2.682-.03c0-3.314-2.654-6.041-5.953-6.041-3.3 0-5.954 2.727-5.954 6.04 0 3.314 2.685 6.04 5.954 6.04 3.268 0 5.953-2.726 5.953-6.04zM28.665 21.447l-.077.064a146.477 146.477 0 003.003 3.506l.072.08.075-.077.12-.121h0l.005-.006c.282-.33.562-.654.84-.977.695-.808 1.376-1.599 2.042-2.405.401-.48.948-.708 1.434-.812a3.509 3.509 0 011.03-.067v.001h.01c.016 0 .034.004.066.012l.004.001c.025.006.06.015.098.017l14.64 3.349.02.005.022-.005 13.028-2.71h0l.003-.001c.723-.17 1.45.31 1.59 1.048h0v.004c.168.738-.308 1.474-1.032 1.616h-.001l-13.328 2.772h0l-.012.003a.908.908 0 01-.54 0v-.001l-.007-.002-14.859-3.32-.01-.002h-.011 0-.001 0-.001 0-.001 0-.001 0-.001 0-.001 0-.001 0-.001 0-.001 0-.001 0-.001 0-.001 0-.001 0-.001 0-.001 0-.001 0-.001 0-.001 0-.001 0-.001 0-.001 0-.001 0-.001 0-.001 0-.001 0-.001 0-.001 0-.001 0-.001 0-.001 0-.001 0-.001 0-.001 0-.001 0-.001 0-.001 0-.001 0-.001 0-.001 0-.001 0-.001 0-.001 0-.001 0-.001 0-.001 0-.001 0-.001 0-.001 0-.001 0-.001 0-.001 0-.001 0-.001 0-.001 0-.001 0-.001 0-.001 0-.001 0-.001 0-.001 0-.001 0-.001 0-.001 0-.001 0-.001 0-.001 0-.001 0-.001 0-.001 0-.001 0-.001 0-.001 0-.001 0-.001 0-.001 0-.001 0-.001 0-.001 0-.001 0-.001 0-.001 0-.001 0-.001 0-.001 0-.001 0-.001 0-.001 0-.001 0-.001 0-.001 0-.001 0-.001 0-.001 0-.001 0-.001 0-.001 0-.001 0-.001 0-.001 0-.001 0-.001 0-.001 0-.001 0-.001 0-.001 0-.001 0-.001 0-.001 0-.001 0-.001 0-.001 0-.001 0-.001 0-.001 0-.001 0-.001 0-.001 0-.001 0-.001 0-.001 0-.001 0-.001 0-.001 0-.001 0-.001 0-.001 0-.001 0-.001 0-.001 0-.001 0-.001 0-.001 0-.001 0-.001 0-.001 0-.001 0-.001 0-.001 0-.001 0-.001 0-.001 0-.001 0-.001 0-.001 0-.001 0-.001 0-.001 0-.001 0-.001 0-.001 0-.047l-.03.035c-.502.591-1.002 1.172-1.507 1.759-.433.502-.87 1.01-1.314 1.53 0 0 0 0 0 0l-1.2 1.37s0 0 0 0a1.344 1.344 0 01-2.011 0l-1.02-1.187c-.312-.363-.624-.723-.934-1.081-.705-.814-1.4-1.617-2.067-2.42l-.043-.053-.064.02-1.642.53c-1.707.55-3.387 1.091-5.067 1.598h-.115v.344h0v.006l1.141 20.716v.007c.038.513.066.905.117 1.21.051.307.127.538.267.722.14.186.338.313.61.43.268.116.621.226 1.082.37h.005s0 0 0 0c.532.172.923.655.95 1.22v.002l1.262 19.558h0c.063.933.825 1.678 1.75 1.678h9.606c.926 0 1.688-.745 1.751-1.678h0l1.26-19.54a.344.344 0 00.026-.085c.005-.03.005-.061.005-.089l1.35-20.102s0 0 0 0c.057-.772.673-1.335 1.424-1.279h.004c.721.029 1.282.679 1.255 1.388l-1.38 20.239a.341.341 0 00-.026.085c-.005.031-.005.061-.005.089v0l-1.26 19.403h0c-.148 2.386-2.116 4.232-4.434 4.232h-9.576c-2.317 0-4.285-1.876-4.432-4.232h0L21.23 51.66l-.004-.065-.061-.022c-1.179-.44-1.873-.886-2.306-1.592-.436-.712-.616-1.703-.721-3.256v-.003l-.03-.333-1.11-20.437v0-.001 0-.001 0-.001 0-.001 0-.001 0-.001 0-.001 0-.001 0-.001 0-.001 0-.001 0-.001 0-.001 0-.001 0-.001 0-.001 0-.001 0-.001 0-.001 0-.001 0-.001 0-.001 0-.001 0-.001 0-.001 0-.001 0-.001 0-.001 0-.001 0-.001 0-.002 0-.001 0-.001 0-.001 0-.001 0-.001 0-.002 0-.001 0-.001 0-.002 0-.001 0-.002 0-.001 0-.002 0-.001 0-.002 0-.001 0-.002 0-.002 0-.002 0-.002 0-.002 0-.002 0-.002 0-.002 0-.002 0-.002 0-.002 0-.001 0-.002 0-.002 0-.001 0-.002 0-.002 0-.001 0-.002 0-.001 0-.002 0-.001 0-.002 0-.001 0-.002 0-.001 0-.002 0-.001 0-.002 0-.002 0-.002 0-.002 0-.002 0-.001 0-.002 0-.002 0-.002 0-.003 0-.002 0-.002 0-.002 0-.003 0-.002 0-.002 0-.002 0-.004 0-.002 0-.003 0-.002 0-.004 0-.002 0-.004 0-.002 0-.004 0-.002 0-.002 0-.003 0-.002 0-.002 0-.003 0-.002 0-.002 0-.003 0-.002 0-.002 0-.004 0-.002 0-.002 0-.004 0-.002 0-.002 0-.004 0-.002 0-.002 0-.004 0-.002 0-.002 0-.004 0-.002 0-.002 0-.004 0-.002 0-.002 0-.005 0-.002 0-.002 0-.004 0-.002 0-.002 0-.003 0-.002 0-.002 0-.004 0-.002 0-.002 0-.003 0-.002 0-.004 0-.002 0-.002 0-.003 0-.002 0-.004 0-.002 0-.003 0-.002 0-.002 0-.002 0-.002 0-.003 0-.002 0-.003 0-.002 0-.002 0-.002 0-.003 0-.002 0-.002 0-.002 0-.002 0-.002 0-.002 0-.002 0-.002 0-.002 0-.001 0-.002 0-.001 0-.002 0-.002 0-.002 0-.001 0-.002 0-.001 0-.002 0-.002 0-.001 0-.002 0-.001 0-.002 0c0-1.328.721-2.325 2-2.739 2.283-.7 4.564-1.432 6.816-2.163h0c.539-.177 1.043-.19 1.505-.053.462.139.89.43 1.27.876l.076-.065zm0 0c-.78-.914-1.771-1.219-2.882-.853l11.437-.061c-.27-.03-1.711-.091-2.552.914-.665.806-1.345 1.596-2.041 2.403-.278.323-.558.648-.84.978l-.05.05.004.006-.075.066-.07-.07.004-.005a145.811 145.811 0 01-2.935-3.428z" stroke-width=".2"/><path d="M51.757 7.056c1.651.693 2.06 1.109 2.744 2.784.12.292.321.542.58.718a1.56 1.56 0 001.751 0c.26-.176.461-.426.58-.718.685-1.675 1.095-2.091 2.746-2.784.288-.122.533-.327.706-.59a1.618 1.618 0 000-1.777 1.583 1.583 0 00-.706-.59c-1.687-.708-2.046-1.066-2.744-2.784a1.596 1.596 0 00-.581-.717 1.56 1.56 0 00-1.751 0c-.26.175-.462.425-.581.717-.698 1.712-1.05 2.076-2.744 2.784a1.583 1.583 0 00-.706.59 1.618 1.618 0 000 1.777c.172.263.418.468.706.59zm4.203-4.553c.722 1.622 1.43 2.34 3.027 3.075-1.58.725-2.31 1.472-3.03 3.076-.72-1.604-1.443-2.35-3.03-3.076 1.598-.735 2.306-1.453 3.03-3.075h.003zM.972 11.803c1.651.693 2.06 1.109 2.744 2.784.119.293.321.542.58.718a1.56 1.56 0 001.751 0c.26-.176.461-.425.58-.718.685-1.675 1.095-2.09 2.746-2.784.287-.121.533-.327.706-.59a1.619 1.619 0 000-1.777 1.583 1.583 0 00-.706-.59C7.686 8.138 7.327 7.78 6.629 6.062a1.596 1.596 0 00-.581-.717 1.561 1.561 0 00-1.751 0c-.26.175-.462.425-.581.717C3.018 7.774 2.665 8.138.972 8.846a1.583 1.583 0 00-.707.59 1.618 1.618 0 000 1.777c.173.263.42.469.707.59zM5.175 7.25c.721 1.622 1.43 2.34 3.027 3.075-1.58.726-2.31 1.472-3.03 3.076-.72-1.604-1.443-2.35-3.03-3.075C3.74 9.59 4.447 8.871 5.171 7.25h.003zM49.753 76.228c1.651.694 2.061 1.11 2.744 2.785.12.292.321.542.58.718a1.56 1.56 0 001.751 0c.26-.176.461-.426.58-.718.685-1.676 1.095-2.092 2.746-2.785.288-.12.533-.326.706-.59a1.618 1.618 0 000-1.776 1.583 1.583 0 00-.706-.59c-1.687-.708-2.046-1.066-2.744-2.785a1.596 1.596 0 00-.58-.717 1.56 1.56 0 00-1.752 0c-.26.176-.462.425-.581.718-.698 1.712-1.05 2.076-2.744 2.784a1.583 1.583 0 00-.706.59 1.618 1.618 0 000 1.777c.172.263.419.468.706.59zm4.203-4.552c.722 1.622 1.43 2.34 3.027 3.075-1.58.725-2.31 1.471-3.03 3.075-.72-1.604-1.443-2.35-3.03-3.075 1.598-.736 2.306-1.453 3.03-3.075h.003z"/></g><defs><filter id="aqfilter0_d" x="-4" y="0" filterUnits="userSpaceOnUse" color-interpolation-filters="sRGB"><feFlood flood-opacity="0" result="BackgroundImageFix"/><feColorMatrix in="SourceAlpha" values="0 0 0 0 0 0 0 0 0 0 0 0 0 0 0 0 0 0 127 0" result="hardAlpha"/><feOffset dy="4"/><feGaussianBlur stdDeviation="2"/><feComposite in2="hardAlpha" operator="out"/><feColorMatrix values="0 0 0 0 0 0 0 0 0 0 0 0 0 0 0 0 0 0 0.25 0"/><feBlend in2="BackgroundImageFix" result="effect1_dropShadow"/><feBlend in="SourceGraphic" in2="effect1_dropShadow" result="shape"/></filter></defs></svg><svg viewBox="0 0 11 11" id="map-pin" xmlns="http://www.w3.org/2000/svg"><g clip-path="url(#arclip0)"><path d="M5.462.023A3.31 3.31 0 002.552 4.9l2.729 4.934a.206.206 0 00.361 0L8.372 4.9A3.31 3.31 0 005.462.024zm0 4.96a1.655 1.655 0 01-1.653-1.654c0-.911.741-1.653 1.653-1.653.911 0 1.652.742 1.652 1.653 0 .912-.741 1.653-1.652 1.653z"/></g><defs><clipPath id="arclip0"><path transform="translate(.462 .023)" d="M0 0h10v10H0z"/></clipPath></defs></svg><svg viewBox="0 0 10 10" id="phone" xmlns="http://www.w3.org/2000/svg"><path d="M8.76 6.416a4.973 4.973 0 01-1.563-.249c-.244-.083-.545-.006-.694.147l-.985.743c-1.142-.61-1.846-1.313-2.447-2.446l.721-.96a.708.708 0 00.174-.717 4.981 4.981 0 01-.25-1.565.704.704 0 00-.702-.703H1.405a.704.704 0 00-.703.703c0 4.443 3.614 8.057 8.057 8.057a.704.704 0 00.703-.703V7.12a.704.704 0 00-.703-.703z"/></svg><svg viewBox="0 0 53 80" id="plant" xmlns="http://www.w3.org/2000/svg"><path d="M51.748 18.932l-2.926-2.925c1.712-2.588 1.43-6.117-.848-8.394l-5.66-5.659A6.629 6.629 0 0037.597 0c-1.781 0-3.457.695-4.716 1.954a6.624 6.624 0 00-1.953 4.716c0 1.329.388 2.596 1.106 3.678l-6.698 6.7a1.335 1.335 0 00-.323 1.364l1.409 4.226-.927.185a6.994 6.994 0 00-1.59-2.46 6.95 6.95 0 00-4.944-2.05c-1.453 0-2.836.44-4.002 1.257a6.944 6.944 0 00-4.002-1.257 6.95 6.95 0 00-4.945 2.05c-2.726 2.726-2.726 7.163 0 9.89l7.614 7.611v8.38C10.97 42.462 6.583 39.98 1.62 39.98c-.736 0-1.334.596-1.334 1.334 0 4.962 2.483 9.349 6.263 12.006H1.62c-.736 0-1.334.596-1.334 1.334v5.336c0 .738.598 1.334 1.334 1.334h1.512l2.503 17.531A1.334 1.334 0 006.956 80h16.008c.665 0 1.226-.488 1.32-1.145l2.505-17.531H28.3c.736 0 1.334-.596 1.334-1.334v-5.336c0-.738-.598-1.334-1.334-1.334h-4.929c3.78-2.657 6.263-7.044 6.263-12.006 0-.738-.598-1.334-1.334-1.334-4.962 0-9.349 2.483-12.006 6.263v-8.379l7.222-7.222h9.757l3.383 3.382a1.33 1.33 0 001.887 0l13.205-13.206a1.333 1.333 0 000-1.886zM33.598 6.67c0-1.07.416-2.075 1.17-2.83 1.514-1.511 4.148-1.511 5.66 0L46.09 9.5c1.227 1.228 1.474 3.055.77 4.541l-4.544-4.542a1.348 1.348 0 00-.521-.321l-5.66-1.887a1.329 1.329 0 00-1.365.322l-.771.77a3.96 3.96 0 01-.4-1.713zm2.474 3.413l4.58 1.526 4.494 4.495-11.32 11.32-4.495-4.493-1.526-4.58 8.267-8.268zM3.037 42.732c5.49.647 9.857 5.016 10.505 10.505-5.49-.648-9.857-5.016-10.505-10.505zm23.93 13.256v2.668h-4.003a1.334 1.334 0 100 2.668h1.13l-2.286 16.008H8.113L5.826 61.324h6.466a1.334 1.334 0 100-2.668H2.954v-2.668h24.012zm-.085-13.256c-.648 5.49-5.014 9.858-10.505 10.505.648-5.49 5.016-9.858 10.505-10.505zM14.96 35.426L7.9 28.365a4.332 4.332 0 010-6.118c1.635-1.634 4.482-1.634 6.117 0 .5.5 1.386.5 1.886 0 1.636-1.634 4.482-1.634 6.118 0 .327.327.59.704.795 1.111l-4.345.869a1.347 1.347 0 00-.681.364l-3.774 3.772a1.334 1.334 0 00.944 2.279h4.784l-4.784 4.784zm3.222-7.452l1.21-1.21 8.336-1.668 2.877 2.878H18.182zm19.417 3.22l-1.887-1.886L47.03 17.989l1.886 1.886L37.6 31.195z"/></svg><svg viewBox="0 0 81 81" id="quality" xmlns="http://www.w3.org/2000/svg"><path d="M55.169 13.004h1.647v1.614a1.093 1.093 0 102.187 0v-1.614h1.614a1.094 1.094 0 000-2.188h-1.614V9.171a1.094 1.094 0 10-2.187 0v1.645h-1.647a1.094 1.094 0 000 2.188zM36.218 36.744l4.317 3.403a2.33 2.33 0 002.897 0l4.317-3.403a5.093 5.093 0 001.953-4.024v-.73a4.828 4.828 0 00-7.718-3.863 4.826 4.826 0 00-7.717 3.864v.73a5.09 5.09 0 001.951 4.023zm.236-4.753a2.637 2.637 0 014.688-1.666 1.095 1.095 0 001.695 0 2.638 2.638 0 014.687 1.666v.73a2.92 2.92 0 01-1.118 2.306l-4.317 3.403a.156.156 0 01-.19 0l-4.334-3.403a2.922 2.922 0 01-1.119-2.307l.008-.73zM60.938 61.74a6.147 6.147 0 10-10.937-3.855 6.094 6.094 0 001.406 3.906 8.456 8.456 0 00-4.424 4.328 8.457 8.457 0 00-1.807-.998 6.144 6.144 0 00-4.343-9.988 6.094 6.094 0 00-4.634 1.634 6.166 6.166 0 00-1.956 4.497 6.094 6.094 0 001.406 3.907 8.302 8.302 0 00-1.733.989 8.437 8.437 0 00-4.583-4.428 6.148 6.148 0 00-4.342-9.988 6.094 6.094 0 00-4.634 1.635 6.167 6.167 0 00-1.952 4.506 6.094 6.094 0 001.406 3.906 8.476 8.476 0 00-5.171 7.812v3.533a2.656 2.656 0 002.656 2.657h13.19v.728a2.657 2.657 0 002.657 2.656h14.684a2.656 2.656 0 002.656-2.656v-.728h13.105a2.657 2.657 0 002.656-2.657v-3.525a8.447 8.447 0 00-5.306-7.87zM30.47 72.99v.615H17.285a.469.469 0 01-.469-.469v-3.525a6.292 6.292 0 014.31-5.98 1.74 1.74 0 00.662-2.904 3.96 3.96 0 012.755-6.802c.095 0 .194 0 .29.011a3.958 3.958 0 013.666 3.716v.223a3.967 3.967 0 01-1.184 2.833 1.71 1.71 0 00-.47 1.631 1.736 1.736 0 001.18 1.26 6.265 6.265 0 014.17 4.26 8.467 8.467 0 00-1.72 5.137l-.006-.005zm17.827 3.53a.469.469 0 01-.469.47H33.132a.469.469 0 01-.469-.47v-3.524a6.296 6.296 0 014.31-5.98 1.739 1.739 0 00.662-2.905 3.96 3.96 0 012.755-6.801 3.958 3.958 0 012.778 6.781 1.72 1.72 0 00-.469 1.633 1.738 1.738 0 001.18 1.26 6.277 6.277 0 014.417 6.012v3.525zm15.76-3.384a.469.469 0 01-.47.469H50.483v-.61a8.462 8.462 0 00-1.785-5.221 6.284 6.284 0 014.035-4.142 1.738 1.738 0 00.661-2.905 3.96 3.96 0 116.711-3.077v.225a3.969 3.969 0 01-1.184 2.833 1.706 1.706 0 00-.469 1.631 1.736 1.736 0 001.18 1.26 6.272 6.272 0 014.414 6.012l.01 3.525z"/><path d="M41.91 51.3h.05a18.419 18.419 0 001.228-36.797v-3.125c.334.035.668.053 1.003.053 1.314 0 3.085-.274 4.511-1.489 1.72-1.464 2.477-3.857 2.241-7.115a1.094 1.094 0 00-1.01-1.013c-3.259-.236-5.652.52-7.117 2.243-.245.29-.461.604-.645.937a5.739 5.739 0 00-.645-.937c-1.464-1.72-3.86-2.479-7.116-2.243a1.094 1.094 0 00-1.004 1.02c-.235 3.257.518 5.65 2.242 7.115 1.426 1.214 3.197 1.489 4.51 1.489.312 0 .6-.016.85-.04v3.09c-1.794.09-3.566.443-5.259 1.048a18.561 18.561 0 00-6.91 4.424A18.418 18.418 0 0041.917 51.3h-.008zm2.572-45.82c.856-1.006 2.305-1.514 4.316-1.514 0 2.006-.505 3.453-1.505 4.31-1.169 1-2.813 1.027-3.75.946-.078-.93-.05-2.58.94-3.742zm-3.684 3.74c-.938.083-2.581.055-3.75-.937-1-.856-1.505-2.303-1.505-4.31 2.006 0 3.452.505 4.308 1.505 1.001 1.161 1.03 2.814.947 3.743zm14.544 14.47a16.13 16.13 0 012.85 9.235 16.354 16.354 0 01-.096 1.71c-.469-.761-.69-.836-.901-.907-.266-.089-1.741-.759-3.058-1.417a.47.47 0 01-.09-.056c-.027-.156.157-.611.238-.808.098-.22.175-.447.23-.681.14-.705-.32-1.433-.855-2.275-.197-.313-.525-.828-.565-.998-.218-1.302-1.946-1.875-3.775-2.488-2.514-.84-4.383-1.688-5.553-2.523l-.05-.038c.247-.27.52-.516.814-.734.612-.49 1.192-.952 1.19-1.647.022-.313.527-1.547 1.094-2.672a16.264 16.264 0 018.527 6.3zM30.39 21.495a16.164 16.164 0 0111.562-4.845H42c.989.002 1.975.095 2.947.278-.404.833-.976 2.116-1.084 2.892a7.84 7.84 0 01-.505.425c-.71.569-1.597 1.277-1.562 2.286.01.392.173.967.887 1.478 1.34.958 3.32 1.866 6.05 2.775.73.244 2.23.744 2.531 1.094.105.495.436 1.019.818 1.619.213.317.404.648.571.992a6.156 6.156 0 01-.1.255c-.265.651-.97 2.385.752 3.246 1.036.52 2.44 1.178 3.08 1.436.413.703.785 1.43 1.114 2.177a16.092 16.092 0 01-2.25 4.61 16.378 16.378 0 01-1.658 2 16.105 16.105 0 01-11.625 4.902h-.045a16.158 16.158 0 01-5.902-1.134 3.984 3.984 0 00.898-2.023c.101-.785-.1-1.578-.56-2.22l-.13-.157-.186-.094c-.756-.38-1.547-1.228-1.99-1.772.295-1.159.673-3.137.134-4.098a1.377 1.377 0 00-.84-.675 7.302 7.302 0 01-3.867-2.628c-.043-1.963-1.917-5.499-2.764-7 .027-.072.05-.144.077-.216a16.136 16.136 0 013.6-5.603zm-4.399 8.45c.965 1.925 1.704 3.81 1.608 4.506l-.044.32.165.28c.062.108 1.545 2.585 4.856 3.613.067.519-.127 1.839-.453 2.995l-.122.433.26.367c.054.074 1.24 1.719 2.688 2.563.1.224.137.47.107.714-.055.453-.333.937-.813 1.42a16.196 16.196 0 01-8.516-14.319c.003-.97.092-1.938.264-2.892z"/></svg><svg viewBox="0 0 20 20" id="search" xmlns="http://www.w3.org/2000/svg"><path d="M19.81 18.912l-5.163-5.081a8.168 8.168 0 002.183-5.55C16.829 3.707 13.062 0 8.414 0 3.767 0 0 3.707 0 8.28c0 4.574 3.767 8.281 8.414 8.281 2.008 0 3.85-.694 5.297-1.849l5.183 5.101a.654.654 0 00.916 0 .63.63 0 000-.901zM8.414 15.287c-3.932 0-7.12-3.137-7.12-7.006 0-3.87 3.188-7.007 7.12-7.007 3.933 0 7.12 3.137 7.12 7.007 0 3.87-3.187 7.006-7.12 7.006z"/></svg><svg viewBox="0 0 20 20" id="search-black" xmlns="http://www.w3.org/2000/svg"><path d="M19.81 18.912l-5.163-5.081a8.168 8.168 0 002.183-5.55C16.829 3.707 13.062 0 8.414 0 3.767 0 0 3.707 0 8.28c0 4.574 3.767 8.281 8.414 8.281 2.008 0 3.85-.694 5.297-1.849l5.183 5.101a.654.654 0 00.916 0 .63.63 0 000-.901zM8.414 15.287c-3.932 0-7.12-3.137-7.12-7.006 0-3.87 3.188-7.007 7.12-7.007 3.933 0 7.12 3.137 7.12 7.007 0 3.87-3.187 7.006-7.12 7.006z"/></svg><svg viewBox="0 0 7 6" id="triangle-down" xmlns="http://www.w3.org/2000/svg"><path d="M3.5 6L.036 0h6.928L3.5 6z"/></svg><svg viewBox="0 0 8 6" id="triangle-down-black" xmlns="http://www.w3.org/2000/svg"><path d="M4 6L.536 0h6.928L4 6z"/></svg><svg viewBox="0 0 21 21" id="twitter" xmlns="http://www.w3.org/2000/svg"><g clip-path="url(#azclip0)"><path d="M20.385 4.299a8.55 8.55 0 01-2.363.647 4.077 4.077 0 001.804-2.266 8.194 8.194 0 01-2.6.992 4.099 4.099 0 00-7.092 2.804c0 .325.027.638.095.935-3.41-.166-6.425-1.8-8.452-4.288a4.128 4.128 0 00-.561 2.072c0 1.42.731 2.679 1.821 3.407a4.05 4.05 0 01-1.852-.505v.046A4.119 4.119 0 004.47 12.17a4.09 4.09 0 01-1.075.135c-.263 0-.528-.015-.776-.07.53 1.624 2.038 2.818 3.83 2.856a8.238 8.238 0 01-5.083 1.75 7.67 7.67 0 01-.981-.057 11.543 11.543 0 006.29 1.84c7.545 0 11.67-6.25 11.67-11.668 0-.18-.006-.356-.015-.53A8.18 8.18 0 0020.385 4.3z"/></g><defs><clipPath id="azclip0"><path transform="translate(.385 .5)" d="M0 0h20v20H0z"/></clipPath></defs></svg><svg viewBox="0 0 21 14" id="youtube" xmlns="http://www.w3.org/2000/svg"><path d="M19.437 1.45C18.895.485 18.306.307 17.107.24 15.91.159 12.898.125 10.29.125c-2.614 0-5.627.034-6.823.114C2.271.308 1.681.484 1.133 1.45.575 2.414.287 4.074.287 6.996v.01c0 2.91.288 4.583.846 5.537.548.965 1.137 1.14 2.333 1.22 1.197.07 4.21.112 6.824.112 2.608 0 5.62-.041 6.818-.11 1.2-.081 1.788-.256 2.33-1.221.564-.954.85-2.627.85-5.537v-.006-.004c0-2.923-.286-4.583-.85-5.547zm-11.65 9.3v-7.5L14.037 7l-6.25 3.75z"/></svg></svg>